<?xml version="1.0" encoding="utf-8"?>
<!-- Generator: Adobe Illustrator 19.0.0, SVG Export Plug-In . SVG Version: 6.00 Build 0)  -->
<svg version="1.1" id="Layer_1" xmlns="http://www.w3.org/2000/svg" xmlns:xlink="http://www.w3.org/1999/xlink" x="0px" y="0px"
	 viewBox="0 0 1500 1500" style="enable-background:new 0 0 1500 1500;" xml:space="preserve">
<style type="text/css">
	.st0{fill:url(#SVGID_1_);}
	.st1{fill:url(#SVGID_2_);}
	.st2{fill:url(#SVGID_3_);}
	.st3{fill:url(#SVGID_4_);}
	.st4{fill:url(#SVGID_5_);}
	.st5{fill:url(#SVGID_6_);}
	.st6{fill:url(#SVGID_7_);}
	.st7{fill:url(#SVGID_8_);}
	.st8{opacity:0;fill:#FFFFFF;}
	.st9{opacity:1.639344e-002;fill:#FDFDFD;}
	.st10{opacity:3.278688e-002;fill:#FBFBFB;}
	.st11{opacity:4.918033e-002;fill:#F9F9F9;}
	.st12{opacity:6.557377e-002;fill:#F6F7F7;}
	.st13{opacity:8.196721e-002;fill:#F4F5F5;}
	.st14{opacity:9.836066e-002;fill:#F2F2F3;}
	.st15{opacity:0.1148;fill:#F0F0F0;}
	.st16{opacity:0.1311;fill:#EEEEEE;}
	.st17{opacity:0.1475;fill:#ECECEC;}
	.st18{opacity:0.1639;fill:#EAEAEA;}
	.st19{opacity:0.1803;fill:#E7E8E8;}
	.st20{opacity:0.1967;fill:#E5E6E6;}
	.st21{opacity:0.2131;fill:#E3E4E4;}
	.st22{opacity:0.2295;fill:#E1E2E2;}
	.st23{opacity:0.2459;fill:#DFE0E0;}
	.st24{opacity:0.2623;fill:#DDDDDE;}
	.st25{opacity:0.2787;fill:#DADBDC;}
	.st26{opacity:0.2951;fill:#D8D9DA;}
	.st27{opacity:0.3115;fill:#D6D7D7;}
	.st28{opacity:0.3279;fill:#D4D5D5;}
	.st29{opacity:0.3443;fill:#D2D3D3;}
	.st30{opacity:0.3607;fill:#D0D1D1;}
	.st31{opacity:0.377;fill:#CECFCF;}
	.st32{opacity:0.3934;fill:#CBCDCD;}
	.st33{opacity:0.4098;fill:#C9CBCB;}
	.st34{opacity:0.4262;fill:#C7C8C9;}
	.st35{opacity:0.4426;fill:#C5C6C7;}
	.st36{opacity:0.459;fill:#C3C4C5;}
	.st37{opacity:0.4754;fill:#C1C2C3;}
	.st38{opacity:0.4918;fill:#BFC0C1;}
	.st39{opacity:0.5082;fill:#BCBEBE;}
	.st40{opacity:0.5246;fill:#BABCBC;}
	.st41{opacity:0.541;fill:#B8BABA;}
	.st42{opacity:0.5574;fill:#B6B8B8;}
	.st43{opacity:0.5738;fill:#B4B6B6;}
	.st44{opacity:0.5902;fill:#B2B3B4;}
	.st45{opacity:0.6066;fill:#B0B1B2;}
	.st46{opacity:0.623;fill:#ADAFB0;}
	.st47{opacity:0.6393;fill:#ABADAE;}
	.st48{opacity:0.6557;fill:#A9ABAC;}
	.st49{opacity:0.6721;fill:#A7A9AA;}
	.st50{opacity:0.6885;fill:#A5A7A8;}
	.st51{opacity:0.7049;fill:#A3A5A5;}
	.st52{opacity:0.7213;fill:#A1A3A3;}
	.st53{opacity:0.7377;fill:#9EA1A1;}
	.st54{opacity:0.7541;fill:#9C9E9F;}
	.st55{opacity:0.7705;fill:#9A9C9D;}
	.st56{opacity:0.7869;fill:#989A9B;}
	.st57{opacity:0.8033;fill:#969899;}
	.st58{opacity:0.8197;fill:#949697;}
	.st59{opacity:0.8361;fill:#919495;}
	.st60{opacity:0.8525;fill:#8F9293;}
	.st61{opacity:0.8689;fill:#8D9091;}
	.st62{opacity:0.8852;fill:#8B8E8F;}
	.st63{opacity:0.9016;fill:#898C8C;}
	.st64{opacity:0.918;fill:#87898A;}
	.st65{opacity:0.9344;fill:#858788;}
	.st66{opacity:0.9508;fill:#828586;}
	.st67{opacity:0.9672;fill:#808384;}
	.st68{opacity:0.9836;fill:#7E8182;}
	.st69{fill:#7C7F80;}
	.st70{fill:#F05B2A;}
	.st71{fill:url(#SVGID_9_);}
	.st72{fill:url(#SVGID_10_);}
	.st73{fill:#2AA7DF;}
	.st74{fill:#231F20;}
	.st75{font-family:'Lora-Bold';}
	.st76{font-size:18.5581px;}
	.st77{font-family:'Lora-Regular';}
	.st78{letter-spacing:48;}
	.st79{font-family:'BreeSerif-Regular';}
	.st80{font-size:37.7697px;}
</style>
<linearGradient id="SVGID_1_" gradientUnits="userSpaceOnUse" x1="757.5176" y1="706.272" x2="1213.3759" y2="250.4139" gradientTransform="matrix(0.7071 -0.7071 0.7071 0.7071 -307.1821 755.65)">
	<stop  offset="3.465350e-002" style="stop-color:#DBDBDB"/>
	<stop  offset="0.8614" style="stop-color:#FFFFFF"/>
</linearGradient>
<path class="st0" d="M964.8,311.7L727.9,74.7l-237,237c-47.2,47.2-47.2,123.6,0,170.8l236.9,236.9l236.9-236.9
	C1012,435.3,1012,358.8,964.8,311.7z"/>
<linearGradient id="SVGID_2_" gradientUnits="userSpaceOnUse" x1="759.8324" y1="703.961" x2="1211.0583" y2="252.735" gradientTransform="matrix(0.7071 -0.7071 0.7071 0.7071 -307.1821 755.65)">
	<stop  offset="0" style="stop-color:#FFFFFF"/>
	<stop  offset="1" style="stop-color:#DBDBDB"/>
</linearGradient>
<path class="st1" d="M727.9,716.1L492.6,480.8c-46.2-46.2-46.2-121.3,0-167.5L727.9,78l235.3,235.3c46.2,46.2,46.2,121.3,0,167.5
	L727.9,716.1z"/>
<linearGradient id="SVGID_3_" gradientUnits="userSpaceOnUse" x1="-744.9826" y1="1062.4557" x2="-359.8721" y2="1447.5663" gradientTransform="matrix(-0.7071 -0.7071 0.7071 -0.7071 -884.5831 1228.2874)">
	<stop  offset="3.465350e-002" style="stop-color:#DBDBDB"/>
	<stop  offset="0.8614" style="stop-color:#FFFFFF"/>
</linearGradient>
<path class="st2" d="M308.1,494.5L71.1,731.5l236.9,236.9c47.2,47.2,123.6,47.2,170.8,0l236.9-236.9L478.9,494.5
	C431.7,447.4,355.2,447.4,308.1,494.5z"/>
<linearGradient id="SVGID_4_" gradientUnits="userSpaceOnUse" x1="-743.3069" y1="1064.1327" x2="-361.546" y2="1445.8936" gradientTransform="matrix(-0.7071 -0.7071 0.7071 -0.7071 -884.5831 1228.2874)">
	<stop  offset="0" style="stop-color:#FFFFFF"/>
	<stop  offset="1" style="stop-color:#DBDBDB"/>
</linearGradient>
<path class="st3" d="M712.5,731.5L477.2,966.8c-46.2,46.2-121.3,46.2-167.5,0L74.4,731.5l235.3-235.3c46.2-46.2,121.3-46.2,167.5,0
	L712.5,731.5z"/>
<linearGradient id="SVGID_5_" gradientUnits="userSpaceOnUse" x1="-1217.1599" y1="1535.3804" x2="-832.0482" y2="1920.4921" gradientTransform="matrix(-0.7071 -0.7071 0.7071 -0.7071 -884.5831 1228.2874)">
	<stop  offset="3.465350e-002" style="stop-color:#DBDBDB"/>
	<stop  offset="0.8614" style="stop-color:#FFFFFF"/>
</linearGradient>
<path class="st4" d="M976.4,494L739.4,731l236.9,236.9c47.2,47.2,123.6,47.2,170.8,0l237-237L1147.2,494
	C1100,446.8,1023.5,446.9,976.4,494z"/>
<linearGradient id="SVGID_6_" gradientUnits="userSpaceOnUse" x1="-1215.4861" y1="1537.054" x2="-833.7231" y2="1918.8169" gradientTransform="matrix(-0.7071 -0.7071 0.7071 -0.7071 -884.5831 1228.2874)">
	<stop  offset="0" style="stop-color:#FFFFFF"/>
	<stop  offset="1" style="stop-color:#DBDBDB"/>
</linearGradient>
<path class="st5" d="M1380.8,731l-235.3,235.3c-46.2,46.2-121.3,46.2-167.5,0L742.7,731L978,495.6c46.2-46.2,121.3-46.2,167.5,0
	L1380.8,731z"/>
<linearGradient id="SVGID_7_" gradientUnits="userSpaceOnUse" x1="284.5965" y1="1178.7494" x2="740.4506" y2="722.8951" gradientTransform="matrix(0.7071 -0.7071 0.7071 0.7071 -307.1821 755.65)">
	<stop  offset="3.465350e-002" style="stop-color:#DBDBDB"/>
	<stop  offset="0.8614" style="stop-color:#FFFFFF"/>
</linearGradient>
<path class="st6" d="M964.5,980.2L727.6,743.2L490.6,980.2c-47.2,47.2-47.2,123.6,0,170.8l237,237L964.5,1151
	C1011.7,1103.8,1011.7,1027.3,964.5,980.2z"/>
<linearGradient id="SVGID_8_" gradientUnits="userSpaceOnUse" x1="286.9135" y1="1176.4274" x2="738.1341" y2="725.2068" gradientTransform="matrix(0.7071 -0.7071 0.7071 0.7071 -307.1821 755.65)">
	<stop  offset="0" style="stop-color:#FFFFFF"/>
	<stop  offset="1" style="stop-color:#DBDBDB"/>
</linearGradient>
<path class="st7" d="M727.6,1384.6l-235.3-235.3c-46.2-46.2-46.2-121.3,0-167.5l235.3-235.3l235.3,235.3
	c46.2,46.2,46.2,121.3,0,167.5L727.6,1384.6z"/>
<g>
	<g>
		<path class="st8" d="M811.3,592.3c145.9,78.3,201,209.2,137.2,341.7c-47.9,99.5-184.3,152.3-256.5,138
			c-82.8-16.4-164.1-97.6-190.1-223.3C473.1,709.7,608.1,584,704.6,575.2C704.6,575.2,760.2,567.6,811.3,592.3z"/>
		<path class="st9" d="M946.9,929.7c-46.5,98.8-180.7,152-252.5,138.8c-82.4-15.1-164-94.9-190.5-219.5
			c-29.3-137.5,103.5-262.7,199.3-272.5c0.8-0.9,56.7-8.5,107.9,16.3C954.6,669.9,1009.4,798.9,946.9,929.7z"/>
		<path class="st10" d="M945.4,925.5c-45.1,98.1-177.2,151.7-248.6,139.6c-82-13.8-163.8-92.2-190.9-215.7
			c-29.8-136.2,100.6-260.9,195.8-271.5c1.6-1.7,57.8-9.4,109.2,15.5C952,669.1,1006.5,796.3,945.4,925.5z"/>
		<path class="st11" d="M943.9,921.3c-43.7,97.4-173.6,151.4-244.6,140.4c-81.5-12.5-163.6-89.5-191.4-211.8
			C477.6,715,605.7,590.8,700.3,579.3c2.3-2.6,58.9-10.3,110.5,14.6C949.5,668.4,1003.6,793.7,943.9,921.3z"/>
		<path class="st12" d="M942.4,917.1c-42.3,96.7-170,151.1-240.6,141.2c-81.1-11.2-163.4-86.8-191.8-208
			c-30.9-133.5,94.9-257.3,188.8-269.6c3.1-3.5,60-11.3,111.7,13.8C946.9,667.7,1000.7,791.1,942.4,917.1z"/>
		<path class="st13" d="M940.9,912.9c-40.9,96-166.5,150.7-236.7,142C623.6,1045,541,970.8,512,850.7
			c-31.5-132.1,92.1-255.4,185.3-268.7c3.9-4.3,61.2-12.2,113,13C944.3,667,997.8,788.6,940.9,912.9z"/>
		<path class="st14" d="M939.4,908.7c-39.5,95.3-162.9,150.4-232.7,142.7c-80.2-8.6-163-81.4-192.6-200.3
			c-32-130.8,89.3-253.6,181.8-267.7c4.7-5.2,62.3-13.1,114.3,12.2C941.7,666.3,994.9,786,939.4,908.7z"/>
		<path class="st15" d="M937.9,904.5c-38.1,94.6-159.3,150.1-228.7,143.5c-79.8-7.3-163.1-78.7-193-196.5
			c-32.8-129.4,86.4-251.8,178.3-266.7c5.5-6,63.4-14.1,115.5,11.4C939.2,665.5,992,783.4,937.9,904.5z"/>
		<path class="st16" d="M936.3,900.3c-36.7,93.9-155.7,149.8-224.8,144.3c-79.4-6.1-162.9-75.9-193.4-192.7
			C484.8,724,601.8,602.1,693,586.2c6.3-6.9,64.5-15,116.8,10.6C936.6,664.8,989.1,780.8,936.3,900.3z"/>
		<path class="st17" d="M934.8,896.1c-35.3,93.2-152.2,149.5-220.8,145.1c-78.9-4.8-162.8-73.2-193.8-188.8
			c-34-126.6,80.7-248.1,171.3-264.8c7-7.8,65.6-15.9,118.1,9.8C934,664.1,986.2,778.2,934.8,896.1z"/>
		<path class="st18" d="M933.3,891.9c-33.9,92.5-148.6,149.1-216.8,145.9c-78.5-3.6-162.6-70.5-194.2-185
			C487.7,727.6,600.2,606.6,690.1,589c7.8-8.6,66.8-16.9,119.3,9C931.4,663.4,983.3,775.6,933.3,891.9z"/>
		<path class="st19" d="M931.8,887.7c-32.5,91.8-145,148.8-212.8,146.7c-78.1-2.4-162.5-67.8-194.7-181.2
			c-35.2-123.9,75-244.4,164.3-262.9c8.6-9.5,67.9-17.8,120.6,8.1C928.9,662.7,980.4,773,931.8,887.7z"/>
		<path class="st20" d="M930.3,883.5C899.2,974.6,788.8,1032,721.4,1031c-77.6-1.1-162.3-65.1-195.1-177.3
			c-35.8-122.6,72.2-242.6,160.8-262c9.4-10.4,69-18.7,121.9,7.3C926.3,662,977.5,770.4,930.3,883.5z"/>
		<path class="st21" d="M928.8,879.3c-29.7,90.4-137.9,148.1-204.9,148.3c-77.2,0.2-162.2-62.4-195.5-173.5
			c-36.3-121.2,69.4-240.8,157.4-261c10.2-11.2,70.1-19.6,123.1,6.5C923.7,661.2,974.6,767.8,928.8,879.3z"/>
		<path class="st22" d="M927.3,875.1c-28.3,89.7-134.3,147.8-200.9,149.1c-76.8,1.5-162-59.7-195.9-169.7
			c-36.9-119.8,66.5-239,153.9-260.1c11-12.1,71.2-20.6,124.4,5.7C921.1,660.5,971.7,765.3,927.3,875.1z"/>
		<path class="st23" d="M925.8,870.9c-26.9,89-130.8,147.5-197,149.9c-76.4,2.8-161.9-57-196.3-165.8
			C495,736.5,596.2,617.9,682.8,595.9c11.7-13,72.4-21.5,125.7,4.9C918.5,659.8,968.8,762.7,925.8,870.9z"/>
		<path class="st24" d="M924.2,866.7c-25.5,88.2-127.2,147.2-193,150.7c-75.9,4-161.7-54.3-196.7-162
			c-38.1-117.1,60.8-235.3,146.9-258.2c12.5-13.8,73.5-22.4,127,4.1C916,659.1,965.9,760.1,924.2,866.7z"/>
		<path class="st25" d="M922.7,862.5c-24.1,87.5-123.6,146.9-189,151.5c-75.5,5.3-161.5-51.5-197.1-158.1
			c-38.7-115.8,58-233.5,143.4-257.2c13.3-14.7,74.6-23.4,128.2,3.3C913.4,658.4,963,757.5,922.7,862.5z"/>
		<path class="st26" d="M921.2,858.3c-22.7,86.8-120.1,146.5-185,152.3c-75.1,6.6-161.4-48.8-197.5-154.3
			C499.4,741.9,593.8,624.6,678.5,600c14.1-15.5,75.7-24.3,129.5,2.5C910.8,657.6,960.1,754.9,921.2,858.3z"/>
		<path class="st27" d="M919.7,854.1c-21.3,86.1-116.5,146.2-181.1,153c-74.7,7.9-161.2-46.1-198-150.5
			C500.9,743.7,593,626.9,677,601.4c14.9-16.4,76.8-25.2,130.8,1.6C908.2,656.9,957.2,752.3,919.7,854.1z"/>
		<path class="st28" d="M918.2,849.9c-19.9,85.4-112.9,145.9-177.1,153.8c-74.2,9.2-161-43.4-198.4-146.6
			c-40.4-111.7,49.5-228,132.9-254.4c15.7-17.3,78-26.1,132,0.8C905.7,656.2,954.3,749.7,918.2,849.9z"/>
		<path class="st29" d="M916.7,845.7c-18.5,84.7-109.4,145.6-173.1,154.6c-73.8,10.4-160.9-40.7-198.8-142.8
			c-40.9-110.3,46.6-226.1,129.4-253.4c16.4-18.1,79.1-27.1,133.3,0C903.1,655.5,951.4,747.1,916.7,845.7z"/>
		<path class="st30" d="M915.2,841.5c-17.1,84-105.8,145.3-169.2,155.4c-73.4,11.7-160.7-38-199.2-139
			C505.3,749,590.6,633.6,672.7,605.5c17.2-19,80.2-28,134.6-0.8C900.5,654.8,948.5,744.6,915.2,841.5z"/>
		<path class="st31" d="M913.7,837.3c-15.7,83.3-102.2,145-165.2,156.2c-73,13-160.5-35.3-199.6-135.1
			c-42.1-107.6,40.9-222.5,122.4-251.5c18-19.9,81.3-28.9,135.8-1.6C897.9,654.1,945.7,742,913.7,837.3z"/>
		<path class="st32" d="M912.1,833.1c-14.3,82.6-98.7,144.7-161.2,157c-72.5,14.3-160.4-32.6-200-131.3
			C508.3,752.6,589,638.2,669.8,608.3c18.8-20.7,82.4-29.9,137.1-2.4C895.4,653.3,942.8,739.4,912.1,833.1z"/>
		<path class="st33" d="M910.6,828.9c-12.9,81.9-95.1,144.4-157.3,157.8c-72.1,15.6-160.2-29.8-200.4-127.5
			c-43.2-104.9,35.2-218.8,115.4-249.6c19.6-21.6,83.6-30.8,138.4-3.2C892.8,652.6,939.9,736.8,910.6,828.9z"/>
		<path class="st34" d="M909.1,824.7c-11.5,81.2-91.6,144.1-153.3,158.6c-71.7,16.9-160-27.1-200.8-123.6
			c-43.8-103.5,32.4-217,111.9-248.6c20.3-22.5,84.7-31.7,139.6-4C890.2,651.9,937,734.2,909.1,824.7z"/>
		<path class="st35" d="M907.6,820.5c-10.1,80.5-88,143.8-149.3,159.4C687,998.1,598.4,955.5,557,860.1
			C512.7,758,586.6,644.9,665.4,612.4c21.1-23.3,85.8-32.6,140.9-4.9C887.6,651.2,934.1,731.6,907.6,820.5z"/>
		<path class="st36" d="M906.1,816.3c-8.7,79.8-84.4,143.4-145.3,160.2c-70.8,19.5-159.7-21.7-201.7-116
			C514.2,759.7,585.8,647.2,664,613.8c21.9-24.2,86.9-33.6,142.2-5.7C885.1,650.5,931.2,729,906.1,816.3z"/>
		<path class="st37" d="M904.6,812.1c-7.3,79.1-80.9,143.1-141.4,161c-70.4,20.7-159.5-19-202.1-112.1
			c-45.4-99.4,23.9-211.5,101.4-245.8c22.7-25,88.1-34.5,143.4-6.5C882.5,649.7,928.3,726.4,904.6,812.1z"/>
		<path class="st38" d="M903.1,807.9c-5.9,78.4-77.3,142.8-137.4,161.8c-70,22-159.3-16.3-202.5-108.3c-46-98,21-209.7,97.9-244.8
			c23.5-25.9,89.2-35.4,144.7-7.3C879.9,649,925.4,723.8,903.1,807.9z"/>
		<path class="st39" d="M901.5,803.7c-4.5,77.7-73.7,142.5-133.4,162.6c-69.6,23.3-159.1-13.6-202.9-104.5
			c-46.6-96.7,18.2-207.8,94.4-243.9c24.3-26.8,90.3-36.4,146-8.1C877.3,648.3,922.5,721.3,901.5,803.7z"/>
		<path class="st40" d="M900,799.5c-3.1,77-70.2,142.2-129.5,163.3c-69.1,24.6-159-10.9-203.3-100.6c-47.1-95.3,15.3-206,90.9-242.9
			c25-27.6,91.4-37.3,147.2-8.9C874.8,647.6,919.6,718.7,900,799.5z"/>
		<path class="st41" d="M898.5,795.3c-1.7,76.3-66.6,141.9-125.5,164.1c-68.7,25.9-158.8-8.2-203.7-96.8
			c-47.7-94,12.5-204.2,87.4-242c25.8-28.5,92.5-38.2,148.5-9.7C872.2,646.9,916.7,716.1,898.5,795.3z"/>
		<path class="st42" d="M897,791.1c-0.3,75.6-63,141.6-121.5,164.9c-68.3,27.2-158.6-5.4-204.1-93c-48.2-92.6,9.7-202.3,83.9-241
			c26.6-29.4,93.7-39.2,149.8-10.6C869.6,646.2,913.8,713.5,897,791.1z"/>
		<path class="st43" d="M895.5,786.9c1.1,74.9-59.5,141.3-117.5,165.7c-67.9,28.5-158.4-2.7-204.5-89.1
			c-48.8-91.3,6.8-200.5,80.4-240.1c27.4-30.2,94.8-40.1,151.1-11.4C867,645.4,910.9,710.9,895.5,786.9z"/>
		<path class="st44" d="M894,782.7c2.5,74.2-55.9,141-113.6,166.5c-67.4,29.8-158.2,0-205-85.3c-49.3-89.9,4-198.7,76.9-239.1
			c28.2-31.1,95.9-41,152.3-12.2C864.4,644.7,908,708.3,894,782.7z"/>
		<path class="st45" d="M892.5,778.5c3.9,73.5-52.3,140.7-109.6,167.3c-67,31.1-158,2.7-205.4-81.5c-49.8-88.5,1.1-196.9,73.4-238.2
			c29-32,97-41.9,153.6-13C861.9,644,905.1,705.7,892.5,778.5z"/>
		<path class="st46" d="M891,774.3c5.3,72.8-48.8,140.4-105.6,168.1c-66.6,32.4-157.8,5.4-205.8-77.6c-50.4-87.2-1.7-195,69.9-237.2
			c29.7-32.8,98.1-42.9,154.9-13.8C859.3,643.3,902.2,703.1,891,774.3z"/>
		<path class="st47" d="M889.4,770.1c6.7,72.1-45.2,140.1-101.7,168.9c-66.1,33.7-157.6,8.1-206.2-73.8
			C530.7,779.3,577,672,648,628.9c30.5-33.7,99.3-43.8,156.1-14.6C856.7,642.6,899.3,700.5,889.4,770.1z"/>
		<path class="st48" d="M887.9,765.9c8.1,71.4-41.6,139.8-97.7,169.7c-65.7,35-157.4,10.8-206.6-70c-51.5-84.5-7.4-191.4,62.9-235.3
			c31.3-34.5,100.4-44.7,157.4-15.4C854.1,641.8,896.4,698,887.9,765.9z"/>
		<path class="st49" d="M886.4,761.7c9.5,70.7-38.1,139.5-93.7,170.5c-65.3,36.3-157.2,13.5-207-66.1
			c-52-83.1-10.2-189.5,59.4-234.3c32.1-35.4,101.5-45.7,158.7-16.2C851.6,641.1,893.5,695.4,886.4,761.7z"/>
		<path class="st50" d="M884.9,757.5c10.9,70-34.5,139.2-89.8,171.3c-64.9,37.6-157,16.2-207.4-62.3
			c-52.5-81.8-13.1-187.7,55.9-233.4c32.9-36.3,102.6-46.6,159.9-17.1C849,640.4,890.6,692.8,884.9,757.5z"/>
		<path class="st51" d="M883.4,753.3c12.3,69.3-30.9,138.9-85.8,172.1c-64.4,38.9-156.8,18.9-207.8-58.5
			c-53.1-80.4-15.9-185.9,52.4-232.4c33.7-37.1,103.7-47.5,161.2-17.9C846.4,639.7,887.7,690.2,883.4,753.3z"/>
		<path class="st52" d="M881.9,749.1c13.7,68.6-27.4,138.6-81.8,172.8c-64,40.2-156.6,21.6-208.3-54.6
			c-53.6-79.1-18.8-184,48.9-231.5c34.4-38,104.9-48.4,162.5-18.7C843.8,639,884.8,687.6,881.9,749.1z"/>
		<path class="st53" d="M880.4,744.9c15.1,67.9-23.8,138.3-77.8,173.6C739,960,646.1,942.8,593.8,867.7
			c-54.1-77.7-21.6-182.2,45.4-230.5c35.2-38.9,106-49.4,163.7-19.5C841.3,638.3,881.9,685,880.4,744.9z"/>
		<path class="st54" d="M878.8,740.7c16.5,67.2-20.2,138-73.9,174.4c-63.1,42.8-156.2,27-209.1-47c-54.6-76.4-24.5-180.4,41.9-229.6
			c36-39.7,107.1-50.3,165-20.3C838.7,637.5,879,682.4,878.8,740.7z"/>
		<path class="st55" d="M877.3,736.5c17.9,66.5-16.6,137.8-69.9,175.2c-62.7,44.1-156,29.7-209.5-43.1
			C542.8,793.5,570.6,690,636.4,640c36.8-40.6,108.2-51.2,166.3-21.1C836.1,636.8,876.1,679.8,877.3,736.5z"/>
		<path class="st56" d="M875.8,732.3c19.3,65.8-13.1,137.5-65.9,176C747.6,953.7,654.1,940.6,600,869
			c-55.7-73.7-30.1-176.7,34.9-227.7c37.6-41.5,109.3-52.2,167.5-21.9C833.5,636.1,873.2,677.3,875.8,732.3z"/>
		<path class="st57" d="M874.3,728.1c20.7,65.1-9.5,137.2-62,176.8c-61.8,46.7-155.6,35-210.3-35.4c-56.2-72.4-33-174.9,31.4-226.7
			c38.3-42.3,110.5-53.1,168.8-22.7C831,635.4,870.3,674.7,874.3,728.1z"/>
		<path class="st58" d="M872.8,723.9c22.1,64.4-5.9,136.9-58,177.6c-61.4,48-155.4,37.7-210.7-31.6c-56.7-71-35.8-173.1,27.9-225.8
			c39.1-43.2,111.6-54,170.1-23.6C828.4,634.7,867.4,672.1,872.8,723.9z"/>
		<path class="st59" d="M871.3,719.7c23.5,63.7-2.3,136.6-54,178.4c-60.9,49.3-155.1,40.4-211.1-27.8
			c-57.3-69.7-38.7-171.2,24.4-224.8c39.9-44,112.7-54.9,171.3-24.4C825.8,633.9,864.5,669.5,871.3,719.7z"/>
		<path class="st60" d="M869.8,715.5c24.9,63,1.2,136.3-50,179.2c-60.5,50.6-154.9,43.1-211.6-23.9
			c-57.8-68.4-41.5-169.4,20.9-223.9c40.7-44.9,113.8-55.9,172.6-25.2C823.2,633.2,861.6,666.9,869.8,715.5z"/>
		<path class="st61" d="M868.3,711.3c26.3,62.3,4.9,136.1-46.1,180c-60,52-154.7,45.8-212-20.1c-58.3-67.1-44.4-167.6,17.4-222.9
			c41.5-45.8,115-56.8,173.9-26C820.7,632.5,858.7,664.3,868.3,711.3z"/>
		<path class="st62" d="M866.7,707.1c27.7,61.6,8.5,135.8-42.1,180.8c-59.5,53.3-154.5,48.4-212.4-16.3
			c-58.8-65.7-47.2-165.7,13.9-221.9c42.3-46.6,116.1-57.7,175.2-26.8C818.1,631.8,855.8,661.7,866.7,707.1z"/>
		<path class="st63" d="M865.2,702.9c29.1,60.9,12,135.5-38.1,181.6C768,939.1,672.8,935.5,614.3,872c-59.3-64.4-50-163.9,10.4-221
			c43-47.5,117.2-58.7,176.4-27.6C815.5,631.1,852.9,659.1,865.2,702.9z"/>
		<path class="st64" d="M863.7,698.7c30.5,60.2,15.6,135.2-34.2,182.4c-58.7,55.9-154,53.8-213.2-8.6c-59.8-63.1-52.9-162.1,6.9-220
			c43.8-48.4,118.3-59.6,177.7-28.4C812.9,630.4,850,656.5,863.7,698.7z"/>
		<path class="st65" d="M862.2,694.5c31.9,59.5,19.2,134.9-30.2,183.1c-58.2,57.2-153.8,56.5-213.6-4.8
			c-60.3-61.8-55.7-160.2,3.4-219.1c44.6-49.2,119.4-60.5,179-29.2C810.3,629.6,847.2,654,862.2,694.5z"/>
		<path class="st66" d="M860.7,690.3c33.3,58.8,22.7,134.6-26.2,183.9c-57.8,58.5-153.6,59.1-214-0.9
			c-60.8-60.5-58.6-158.4-0.1-218.1c45.4-50.1,120.6-61.4,180.2-30.1C807.8,628.9,844.3,651.4,860.7,690.3z"/>
		<path class="st67" d="M859.2,686.1c34.7,58.1,26.3,134.2-22.2,184.7c-57.4,59.8-153.3,61.7-214.4,2.9
			c-61.3-59.2-61.4-156.6-3.6-217.2c46.2-51,121.7-62.4,181.5-30.9C805.2,628.2,841.4,648.8,859.2,686.1z"/>
		<path class="st68" d="M857.7,681.9c36.1,57.4,29.9,133.9-18.3,185.5c-57,61.1-153.1,64.4-214.9,6.7
			c-61.8-57.9-64.3-154.8-7.1-216.2c47-51.8,122.8-63.3,182.8-31.7C802.6,627.5,838.5,646.2,857.7,681.9z"/>
		<path class="st69" d="M856.2,677.7c37.5,56.7,33.4,133.6-14.3,186.3c-56.5,62.4-152.9,67.1-215.3,10.6
			C564.2,818,559.5,721.6,616,659.3c47.7-52.7,123.9-64.2,184-32.5C800,626.8,835.6,643.6,856.2,677.7z"/>
	</g>
	<path class="st70" d="M589.8,868.8c75.1,75.1,197,75.1,272.1,0c75.1-75.1,75.1-197,0-272.1c-75.1-75.1-197-75.1-272.1,0
		C514.7,671.9,514.7,793.7,589.8,868.8z"/>
	
		<linearGradient id="SVGID_9_" gradientUnits="userSpaceOnUse" x1="2570.7336" y1="830.6034" x2="2238.5295" y2="597.9916" gradientTransform="matrix(-0.7071 0.7071 0.7071 0.7071 1921.1158 -1472.6479)">
		<stop  offset="3.465350e-002" style="stop-color:#878787"/>
		<stop  offset="0.8614" style="stop-color:#FFFFFF"/>
	</linearGradient>
	<path class="st71" d="M869.3,876.2c79.1-79.1,79.1-207.8,0-286.9c-79.1-79.1-207.8-79.1-286.9,0c-79.1,79.1-79.1,207.8,0,286.9
		C661.5,955.3,790.2,955.3,869.3,876.2z"/>
	
		<linearGradient id="SVGID_10_" gradientUnits="userSpaceOnUse" x1="646.9953" y1="886.9201" x2="846.3213" y2="541.6775" gradientTransform="matrix(0.7071 -0.7071 0.7071 0.7071 -307.1821 755.65)">
		<stop  offset="0.2927" style="stop-color:#F9F9F9"/>
		<stop  offset="1" style="stop-color:#DBDBDB"/>
	</linearGradient>
	<path class="st72" d="M866.8,873.7c77.7-77.7,77.7-204.2,0-281.9c-77.7-77.7-204.2-77.7-281.9,0s-77.7,204.2,0,281.9
		C662.6,951.5,789.1,951.5,866.8,873.7z"/>
</g>
<g>
	<path class="st73" d="M729.7,783.2c0.6,0.6,0.6,1.5,0,2.1L720,795c-0.6,0.6-1.5,0.6-2.1,0L702,779.1c-0.6-0.6-0.6-1.5,0-2.1
		l9.7-9.7c0.6-0.6,1.5-0.6,2.1,0L729.7,783.2z"/>
	<path class="st73" d="M749.8,764c0.3,0.3,0.1,1.1-0.4,1.7l-9.7,9.7c-0.6,0.6-1.3,0.8-1.7,0.4l-9.2-9.2c-0.3-0.3-0.2-1.1,0.4-1.7
		l9.7-9.7c0.6-0.6,1.3-0.8,1.7-0.4L749.8,764z"/>
	<path class="st73" d="M768.1,743.2c1,1,1.4,2.3,0.8,2.9l-9.7,9.7c-0.6,0.6-1.9,0.2-2.9-0.8l-27.1-27.1c-1-1-1.3-2.3-0.8-2.8
		l9.7-9.7c0.6-0.6,1.8-0.2,2.8,0.8L768.1,743.2z"/>
	<path class="st73" d="M786.1,721.8c2,2,3.1,4,2.5,4.6l-9.7,9.7c-0.6,0.6-2.6-0.5-4.6-2.5l-53-53c-2-2-3.1-4-2.5-4.6l9.7-9.7
		c0.6-0.6,2.6,0.6,4.6,2.5L786.1,721.8z"/>
	<polygon class="st73" points="689.7,645.9 687.7,665.1 694.5,663.6 710.5,740.4 682.1,749.3 683.3,764.3 693.1,763.5 692.5,756.3 
		721.9,747.1 704.1,661.6 711.3,660 701.5,643.3 691.7,626.7 	"/>
</g>
<g>
	<g>
		<path class="st70" d="M371.4,953.8c-15.4-15.4-15.4-40.4,0-55.8l0,0c15.4-15.4,40.4-15.4,55.8,0l0,0c15.4,15.4,15.4,40.4,0,55.8
			l0,0C411.8,969.2,386.8,969.2,371.4,953.8L371.4,953.8z M361.7,925.9c0,9.6,3.7,19.3,11,26.6l0,0c7.4,7.4,17,11,26.6,11l0,0
			c9.6,0,19.3-3.7,26.6-11l0,0c7.4-7.4,11-17,11-26.6l0,0c0-9.6-3.7-19.3-11-26.6l0,0c-7.4-7.4-17-11-26.6-11l0,0
			c-9.6,0-19.3,3.7-26.6,11l0,0C365.3,906.6,361.7,916.3,361.7,925.9L361.7,925.9z"/>
	</g>
	<path class="st70" d="M407.5,933.8c-0.3,5.7,2,5.2,2,5.2c0.7,5,8.3,3.9,8.3,3.9s-3,2.3,0.3-0.5c3.3-2.8,7,5.8,8,8.1
		c1,2.3,3.8-2.3,3.2-1.4c-0.5,0.9-0.4-3.7-0.4-3.7s-1.7,0.9-0.3,0.8c1.4-0.1,1.3-4.1,1.3-4.1c1.5-0.5,2.4-3.6,1.7-4.8
		c-0.7-1.1-0.3-2.9-0.3-2.9s-2.1,1.4,0.4-0.6c2.6-2,0.6-5.7,0.6-8.2c0-2.5-1.3-4.6-2.4-5.9c-1.1-1.3-7.1,2.8-7.1,2.8
		c-4.2-1.9-6.9,1.6-6.9,1.6c-4.7-1.2-6.7,2-6.7,2c-4.9,0.6-3.5,5.9-3.5,5.9c-0.7-0.7-1.3,0.5-1.3,0.5c-1.9,3.2-3.8,1-4.7,0
		c-0.9-1-3.7,0.7-3.5-0.8c0.3-1.5-2.4-2.1-2.4-2.1c-3,7.3-6.5,0.2-5.7-1.4c0.9-1.6,3.2-3.7,3.8-4.6c0.6-1,1.6,1.7,3.8,1.5
		c2.2-0.2-0.8-2.2-0.8-2.2c-2.9-1.4-1.5-5.4-1.5-5.4c-1.1-2-1.9-8.6-0.2-10.1c1.8-1.4,4.8-2.9,1.1-5.3c0,0-7.6-10.5-17-0.5l-0.6,1.8
		c-0.3,4.9-6.4,3.5-8.8,2.9c-2.4-0.6-3.3,7.7-3.3,7.7c-2.7,5.7,0.3,2.2,1.7,0.2c1.4-2,2.7,2.2,2.7,2.2s2.2,1.3,1.1,2.4
		c-1.1,1.1,0.1,2.9,0.9,2.3c0.8-0.6,0.6,0.3,0.6,0.3c-3.1,8,10.3,15.6,11,15.4c0.6-0.1,0.6-0.9,0.6-0.9c-1.6-1.4-3.4-3.4-3.4-3.4
		c5.3,5,11.1,4.3,13.2,2.4c2.1-1.9,3.9-0.3,3.9-0.3s-4.2-1.1,0.9-0.2c5,0.9,6.3,0.8,7-0.7c0.7-1.6,1.7-0.6,1.7-0.6"/>
</g>
<g>
	<path class="st70" d="M998.1,540.2l-12.5,12.5c-2.5,2.5-2.6,6.6,0,9.2l30.3,30.3c2.5,2.5,6.7,2.5,9.2,0l12.5-12.5
		c2.5-2.5,2.5-6.6,0-9.2l-30.3-30.3C1004.7,537.7,1000.6,537.7,998.1,540.2z M1026.7,580.3l-0.5,0.5c-1.2,1.2-3,1.2-4.2,0
		c-1.2-1.2-1.2-3,0-4.2l0.5-0.5c1.2-1.2,3-1.1,4.2,0C1027.8,577.3,1027.9,579.2,1026.7,580.3z M1010.6,553l-12.3,12.3
		c-0.8,0.8-2.1,0.8-2.9,0c-0.8-0.8-0.8-2.1,0-2.9l12.3-12.3c0.8-0.8,2.1-0.8,2.9,0C1011.4,550.8,1011.4,552.1,1010.6,553z
		 M1005.8,548.1l-12.3,12.3c-0.8,0.8-2.1,0.8-2.9,0c-0.8-0.8-0.8-2.1,0-2.9l12.3-12.3c0.8-0.8,2.1-0.8,2.9,0
		C1006.6,546,1006.6,547.3,1005.8,548.1z"/>
	<path class="st70" d="M1048.7,488.9l-37.6,37.6c-3.2,3.2-3.2,8.4,0,11.6l21.2,21.2c3.2,3.2,8.4,3.2,11.6,0l37.6-37.6
		c3.2-3.2,3.2-8.4,0-11.6l-21.2-21.2C1057.1,485.7,1051.9,485.7,1048.7,488.9z M1079.2,512.5c1.9,1.9,1.9,5.1,0,7l-37.6,37.6
		c-1.9,1.9-5,1.9-7,0l-21.2-21.2c-1.9-1.9-1.9-5.1,0-7l37.6-37.6c1.9-1.9,5.1-1.9,7,0L1079.2,512.5z"/>
	<path class="st70" d="M1071.6,541.6c1.7,1.7,1.7,4.4,0,6.1l-2.5,2.5c-1.7,1.7-4.5,1.7-6.1,0l0,0c-1.7-1.7-1.7-4.5,0-6.2l2.5-2.5
		C1067.1,539.9,1069.9,539.9,1071.6,541.6L1071.6,541.6z"/>
</g>
<g>
	<g>
		<g>
			<path class="st70" d="M933.9,413.2l1.8-0.2c0.6,4,0.7,7.4,0.5,10.2c-0.3,2.9-0.9,4.8-1.9,5.8c-0.6,0.6-1.2,0.8-1.8,0.7
				c-0.7-0.1-1.4-0.6-2.2-1.4c-2-2-4.7-5.7-8.1-11c-3.4-5.3-5.9-8.8-7.7-10.6c-0.3-0.3-0.6-0.5-0.9-0.6c-0.3-0.1-0.5,0-0.7,0.2
				c-0.3,0.3-0.5,0.9-0.6,1.6c-0.1,0.8-0.1,1.9-0.1,3.3l-1.8,0c-0.3-4-0.3-7.3,0-10c0.3-2.7,0.9-4.5,1.8-5.4
				c0.6-0.6,1.2-0.8,1.8-0.7c0.6,0.1,1.3,0.5,2,1.2c0.7,0.7,2.6,3.2,5.6,7.5c1,1.5,1.8,2.6,2.4,3.4c2,2.8,3.7,5.2,5.1,7
				s2.2,2.9,2.5,3.3c0.4,0.4,0.8,0.6,1.1,0.7c0.3,0.1,0.6,0,0.9-0.3c0.3-0.3,0.4-0.8,0.5-1.6C934.1,415.5,934,414.5,933.9,413.2z
				 M901,383.8c0.8-0.8,1.6-1.2,2.7-1.1c1,0,1.9,0.4,2.6,1.1c1.3,1.3,2,2.7,2.1,4.2c0.2,1.6-0.3,2.9-1.3,3.9
				c-0.8,0.8-1.7,1.2-2.7,1.1c-1,0-1.9-0.5-2.8-1.3c-1.1-1.1-1.7-2.5-1.9-4.1C899.6,386,900,384.7,901,383.8z"/>
		</g>
		<g>
			<path class="st70" d="M891.1,433.2c-15.1-15.1-15.1-39.7,0-54.8l0,0c15.1-15.1,39.7-15.2,54.8,0l0,0l0,0
				c15.1,15.2,15.1,39.7,0,54.9l0,0C930.8,448.4,906.3,448.4,891.1,433.2L891.1,433.2z M884.8,405.8c0,8.6,3.3,17.3,9.9,23.9l0,0
				c6.6,6.6,15.2,9.9,23.9,9.9l0,0c8.6,0,17.3-3.3,23.9-9.9l0,0c6.6-6.6,9.9-15.2,9.9-23.9l0,0c0-8.6-3.3-17.2-9.9-23.9l0,0
				c-6.6-6.6-15.2-9.9-23.9-9.9l0,0c-8.6,0-17.3,3.3-23.9,9.9l0,0C888.1,388.5,884.8,397.2,884.8,405.8L884.8,405.8z"/>
		</g>
	</g>
	<path class="st70" d="M918.5,405.3c0.2,0.2,0.2,0.4,0,0.6c-0.2,0.2-0.4,0.2-0.6,0c-0.2-0.2-0.2-0.4,0-0.6
		C918.1,405.2,918.4,405.2,918.5,405.3z"/>
</g>
<g>
	<g>
		<path class="st70" d="M533.9,1085.4c-1.8,1.8-4.8,1.8-6.7,0l0,0l-31.5-31.5c-1.8-1.8-1.8-4.8,0-6.7l0,0l51.3-51.3
			c1.8-1.8,4.8-1.8,6.7,0l0,0l31.5,31.5c1.9,1.9,1.9,4.9,0,6.7l0,0L533.9,1085.4L533.9,1085.4z M498.7,1050.9l31.5,31.5
			c0.2,0.2,0.5,0.2,0.7,0l0,0l51.3-51.3c0.2-0.2,0.2-0.5,0-0.7l0,0l-31.5-31.5c-0.2-0.2-0.5-0.2-0.7,0l0,0l-51.3,51.3
			C498.5,1050.4,498.5,1050.7,498.7,1050.9L498.7,1050.9z"/>
	</g>
	<g>
		<path class="st70" d="M545.4,1044c-0.7,0.7-1.4,1.1-1.9,1.5l0,0c-0.4,0.3-0.5,0.3-0.7,0.4l0,0c-0.2,0.1-0.4,0.1-0.6,0.2l0,0
			c-0.4,0.1-1,0.3-1.7,0.4l0,0c-1.4,0.3-3.2,0.7-5.3,1.1l0,0c-4.3,0.9-9.9,1.9-15.4,2.9l0,0c-11.1,2-21.9,4-21.9,4l0,0l-1.1,0.2
			l-0.8-0.8c-1.9-1.9-1.8-4.8,0-6.7l0,0l51.2-51.2c1.8-1.8,4.8-1.9,6.7,0l0,0l0.8,0.8l-0.2,1.1c0,0-4.2,28.3-5.8,37.8l0,0
			c-0.2,1.4-0.4,2.3-0.5,2.9l0,0c-0.3,1.3-0.6,2.3-1.1,3.2l0,0C546.6,1042.7,546,1043.4,545.4,1044L545.4,1044
			C545.4,1044,545.4,1044,545.4,1044L545.4,1044z M542.4,1041c0.3-0.3,0.5-0.6,0.8-1.1l0,0c0.3-0.5,0.5-1.2,0.7-2.2l0,0
			c0.1-0.6,0.4-2.5,0.8-5l0,0c0.4-2.6,0.9-5.8,1.4-9.3l0,0c1.1-7,2.3-15,3.1-20.3l0,0c0.2-1.5,0.4-2.8,0.6-3.8l0,0l-50.7,50.7
			c0.4-0.1,0.8-0.1,1.3-0.2l0,0c2.1-0.4,5.1-0.9,8.5-1.5l0,0c6.8-1.2,15.2-2.8,21.9-4.1l0,0c4.4-0.9,8.1-1.6,9.8-2.1l0,0
			c0.3-0.1,0.6-0.2,0.7-0.2l0,0C541.8,1041.6,542.1,1041.3,542.4,1041L542.4,1041z"/>
	</g>
</g>
<text transform="matrix(0.7071 -0.7071 0.7071 0.7071 526.6329 439.5711)"><tspan x="0" y="0" class="st74 st75 st76">Infosys Techonogies Limited (2007- 2011)</tspan><tspan x="0" y="22.3" class="st74 st77 st76">Technology Analyst-Web Developer</tspan><tspan x="0" y="66.8" class="st74 st75 st76">Hewlett Packard (2011 - 2013)</tspan><tspan x="0" y="89.1" class="st74 st77 st76">Consultant-Web Developer</tspan><tspan x="0" y="133.6" class="st74 st75 st76">Philips Electronics Limited (2013 to present)</tspan><tspan x="0" y="155.9" class="st74 st77 st76">Technical Specialist- Graphic Designer &amp; </tspan><tspan x="0" y="178.2" class="st74 st77 st76 st78">			</tspan><tspan x="159.1" y="178.2" class="st74 st77 st76">    Web Developer</tspan></text>
<text transform="matrix(0.7071 -0.7071 0.7071 0.7071 563.03 338.6443)" class="st74 st79 st80">Career</text>
<text transform="matrix(0.7071 -0.7071 0.7071 0.7071 606.9313 1224.5966)"><tspan x="0" y="0" class="st74 st75 st76">2007 - Completed Bachelors of Engineering </tspan><tspan x="0" y="22.3" class="st74 st75 st76 st78">	</tspan><tspan x="53" y="22.3" class="st74 st75 st76"> in Computer Science</tspan><tspan x="0" y="44.5" class="st74 st75 st76 st78">	</tspan><tspan x="53" y="44.5" class="st74 st77 st76"> Anna University, Tamilnadu,India.</tspan></text>
<text transform="matrix(0.7071 -0.7071 0.7071 0.7071 637.9291 1076.4812)" class="st74 st79 st80">Studies</text>
<text transform="matrix(0.7071 -0.7071 0.7071 0.7071 969.3973 745.0117)" class="st74 st79 st80">What can i do?</text>
<text transform="matrix(0.7071 -0.7071 0.7071 0.7071 231.5611 670.1132)" class="st74 st79 st80">About Me</text>
<text transform="matrix(0.7071 -0.7071 0.7071 0.7071 192.1635 775.9622)"><tspan x="0" y="0" class="st74 st77 st76">I’m Vishnu,Working in bangalore as</tspan><tspan x="0" y="27.2" class="st74 st77 st76">Web Developer. I have a total for 8 Years of </tspan><tspan x="0" y="54.4" class="st74 st77 st76">Experience wherein i have an indepth </tspan><tspan x="0" y="81.6" class="st74 st77 st76">knowledge on how to design and develop </tspan><tspan x="0" y="108.8" class="st74 st77 st76">web elements from a Front-End,Back-End </tspan><tspan x="0" y="136" class="st74 st77 st76">and Design Perspective.</tspan></text>
<text transform="matrix(0.7071 -0.7071 0.7071 0.7071 955.5464 826.026)"><tspan x="0" y="0" class="st74 st77 st76">Design and Develop Beautiful Websites</tspan><tspan x="0" y="27.2" class="st74 st77 st76">Amazing Logo Designs</tspan><tspan x="0" y="54.4" class="st74 st77 st76">Business card Designs</tspan><tspan x="0" y="81.6" class="st74 st77 st76">Create ASP.net Websites</tspan><tspan x="0" y="108.8" class="st74 st77 st76">Mobile App Designs</tspan><tspan x="0" y="136" class="st74 st77 st76">PSD to HTML</tspan><tspan x="0" y="163.2" class="st74 st77 st76">Responsive Web Design</tspan><tspan x="0" y="190.4" class="st74 st77 st76">Automate using Scripting Technologies</tspan></text>
</svg>
