<?xml version="1.0" encoding="utf-8"?>
<!-- Generator: Adobe Illustrator 19.0.0, SVG Export Plug-In . SVG Version: 6.00 Build 0)  -->
<svg version="1.1" id="Layer_1" xmlns="http://www.w3.org/2000/svg" xmlns:xlink="http://www.w3.org/1999/xlink" x="0px" y="0px"
	 viewBox="0 0 1000 1000" style="enable-background:new 0 0 1000 1000;" xml:space="preserve">
<style type="text/css">
	.st0{fill:url(#SVGID_1_);}
	.st1{fill:none;}
	.st2{fill:url(#SVGID_2_);}
	.st3{fill:url(#SVGID_3_);}
	.st4{filter:url(#Adobe_OpacityMaskFilter);}
	.st5{fill:url(#SVGID_5_);}
	.st6{mask:url(#SVGID_4_);fill:url(#SVGID_6_);}
	.st7{fill:#FFFFFF;}
	.st8{fill:url(#SVGID_7_);}
	.st9{fill:url(#SVGID_8_);}
	.st10{fill:url(#SVGID_9_);}
	.st11{fill:url(#SVGID_10_);}
	.st12{fill:url(#SVGID_11_);}
	.st13{fill:url(#SVGID_12_);}
	.st14{filter:url(#Adobe_OpacityMaskFilter_1_);}
	.st15{fill:url(#SVGID_14_);}
	.st16{mask:url(#SVGID_13_);fill:url(#SVGID_15_);}
	.st17{fill:url(#SVGID_16_);}
	.st18{fill:url(#SVGID_17_);}
	.st19{filter:url(#Adobe_OpacityMaskFilter_2_);}
	.st20{fill:url(#SVGID_19_);}
	.st21{mask:url(#SVGID_18_);fill:url(#SVGID_20_);}
	.st22{fill:url(#SVGID_21_);}
	.st23{filter:url(#Adobe_OpacityMaskFilter_3_);}
	.st24{fill:url(#SVGID_23_);}
	.st25{mask:url(#SVGID_22_);fill:url(#SVGID_24_);}
	.st26{fill:#FF6E0B;}
	.st27{fill:#A6987C;}
	.st28{fill:#FF5596;}
	.st29{fill:#2ABAC3;}
	.st30{font-family:'Lora-Bold';}
	.st31{font-size:27.5511px;}
	.st32{font-family:'BreeSerif-Regular';}
	.st33{font-size:41.3266px;}
</style>
<linearGradient id="SVGID_1_" gradientUnits="userSpaceOnUse" x1="451.3281" y1="495.3738" x2="818.1137" y2="495.3738" gradientTransform="matrix(0.5656 -0.8246 0.8246 0.5656 -198.2791 628.9902)">
	<stop  offset="0" style="stop-color:#C6CDD1"/>
	<stop  offset="0.4937" style="stop-color:#E4E6E7"/>
	<stop  offset="0.589" style="stop-color:#EAEBEC"/>
	<stop  offset="1" style="stop-color:#FFFFFF"/>
</linearGradient>
<path class="st0" d="M533.4,583.5l-134.2-92.9l180.3-265.3c14.2-20.8,54-18.2,88.8,5.9l7.9,5.5c34.8,24.1,51.6,60.7,37.4,81.5
	L533.4,583.5z"/>
<path class="st1" d="M607.2,212.2c18.4,13.2-8.4,79.4-59.7,147.9c-51.4,68.5-107.9,113.4-126.3,100.2
	c-18.4-13.2,8.4-79.4,59.7-147.9C532.3,243.8,588.8,199,607.2,212.2z"/>
<linearGradient id="SVGID_2_" gradientUnits="userSpaceOnUse" x1="440.2962" y1="492.7716" x2="817.3516" y2="492.7716" gradientTransform="matrix(0.5656 -0.8246 0.8246 0.5656 -198.2791 628.9902)">
	<stop  offset="0" style="stop-color:#FFFFFF"/>
	<stop  offset="0.411" style="stop-color:#EAEBEC"/>
	<stop  offset="0.5063" style="stop-color:#E4E6E7"/>
	<stop  offset="1" style="stop-color:#C6CDD1"/>
</linearGradient>
<path class="st2" d="M711.7,318.8L526.1,591.9l-136.3-94.4l185.6-273.2c14.4-21.2,54.8-18.5,90.2,6l8.2,5.6
	C709.1,260.5,726.1,297.6,711.7,318.8z"/>
<linearGradient id="SVGID_3_" gradientUnits="userSpaceOnUse" x1="491.7799" y1="406.6134" x2="612.2625" y2="406.6134" gradientTransform="matrix(1 -2.734151e-003 2.734151e-003 1 -1.3365 1.3977)">
	<stop  offset="0" style="stop-color:#FF6E0B"/>
	<stop  offset="0.356" style="stop-color:#FF832E"/>
	<stop  offset="0.7746" style="stop-color:#FF9851"/>
	<stop  offset="1" style="stop-color:#FFA05E"/>
</linearGradient>
<path class="st3" d="M601.5,440.9c-18.8,27.7-56.3,34.7-83.7,15.7c-27.4-19-34.4-56.8-15.6-84.5c18.8-27.7,56.3-34.7,83.7-15.7
	C613.3,375.4,620.3,413.2,601.5,440.9z"/>
<defs>
	<filter id="Adobe_OpacityMaskFilter" filterUnits="userSpaceOnUse" x="491.6" y="346.1" width="120.7" height="120.8">
		<feColorMatrix  type="matrix" values="1 0 0 0 0  0 1 0 0 0  0 0 1 0 0  0 0 0 1 0"/>
	</filter>
</defs>
<mask maskUnits="userSpaceOnUse" x="491.6" y="346.1" width="120.7" height="120.8" id="SVGID_4_">
	<g class="st4">
		
			<linearGradient id="SVGID_5_" gradientUnits="userSpaceOnUse" x1="2265.9275" y1="827.0078" x2="2290.1917" y2="884.285" gradientTransform="matrix(0.9715 0.2636 -0.2611 0.962 -1441.4911 -1043.5382)">
			<stop  offset="0" style="stop-color:#FFFFFF"/>
			<stop  offset="9.435117e-003" style="stop-color:#FCFCFC"/>
			<stop  offset="0.288" style="stop-color:#B0AFAF"/>
			<stop  offset="0.5361" style="stop-color:#737172"/>
			<stop  offset="0.7447" style="stop-color:#484445"/>
			<stop  offset="0.9059" style="stop-color:#2D292A"/>
			<stop  offset="1" style="stop-color:#231F20"/>
		</linearGradient>
		<path class="st5" d="M610.3,422.5c-8.7,32.2-41.8,51.1-74,42.3c-32.2-8.8-51.3-42-42.6-74.2c8.7-32.2,41.8-51.1,74-42.3
			C599.9,357.1,618.9,390.3,610.3,422.5z"/>
	</g>
</mask>
<radialGradient id="SVGID_6_" cx="2291.4678" cy="879.3049" r="60.5546" gradientTransform="matrix(0.9626 0.2636 -0.2587 0.962 -1426.2415 -1043.5382)" gradientUnits="userSpaceOnUse">
	<stop  offset="0" style="stop-color:#FFFFFF"/>
	<stop  offset="0.3516" style="stop-color:#FDFDFD"/>
	<stop  offset="0.5083" style="stop-color:#F6F7F7"/>
	<stop  offset="0.6262" style="stop-color:#E9EBED"/>
	<stop  offset="0.7249" style="stop-color:#D7DBDE"/>
	<stop  offset="0.8113" style="stop-color:#C0C6CA"/>
	<stop  offset="0.8893" style="stop-color:#A3ADB2"/>
	<stop  offset="0.9594" style="stop-color:#818F96"/>
	<stop  offset="1" style="stop-color:#6A7A83"/>
</radialGradient>
<path class="st6" d="M610.3,422.5c-8.7,32.2-41.8,51.1-74,42.3c-32.2-8.8-51.3-42-42.6-74.2c8.7-32.2,41.8-51.1,74-42.3
	C599.9,357.1,618.9,390.3,610.3,422.5z"/>
<g>
	<path class="st7" d="M536.1,447.9l-8.2-5.7l37.1-54.6l-11.2,1.6l-1.2-7l18.9-3.1l7.8,5.4L536.1,447.9z"/>
</g>
<linearGradient id="SVGID_7_" gradientUnits="userSpaceOnUse" x1="622.5209" y1="718.7581" x2="988.0898" y2="718.7581" gradientTransform="matrix(0.8246 0.5656 -0.5656 0.8246 436.898 -366.3436)">
	<stop  offset="0" style="stop-color:#C6CDD1"/>
	<stop  offset="0.4937" style="stop-color:#E4E6E7"/>
	<stop  offset="0.589" style="stop-color:#EAEBEC"/>
	<stop  offset="1" style="stop-color:#FFFFFF"/>
</linearGradient>
<path class="st8" d="M498.4,645.8l92-135.4l262.8,181.9c20.6,14.3,18,54.5-5.9,89.6l-5.4,8c-23.9,35.1-60.1,52.1-80.7,37.8
	L498.4,645.8z"/>
<linearGradient id="SVGID_8_" gradientUnits="userSpaceOnUse" x1="611.5025" y1="716.0932" x2="987.3076" y2="716.0932" gradientTransform="matrix(0.8246 0.5656 -0.5656 0.8246 436.898 -366.3436)">
	<stop  offset="0" style="stop-color:#FFFFFF"/>
	<stop  offset="0.411" style="stop-color:#EAEBEC"/>
	<stop  offset="0.5063" style="stop-color:#E4E6E7"/>
	<stop  offset="1" style="stop-color:#C6CDD1"/>
</linearGradient>
<path class="st9" d="M760.7,825.9L490.1,638.5l93.5-137.6l270.7,187.4c21,14.5,18.3,55.3-5.9,91l-5.6,8.2
	C818.4,823.2,781.7,840.4,760.7,825.9z"/>
<linearGradient id="SVGID_9_" gradientUnits="userSpaceOnUse" x1="505.2763" y1="758.8055" x2="872.062" y2="758.8055" gradientTransform="matrix(-0.5656 0.8246 -0.8246 -0.5656 1371.3564 552.0618)">
	<stop  offset="0" style="stop-color:#C6CDD1"/>
	<stop  offset="0.4937" style="stop-color:#E4E6E7"/>
	<stop  offset="0.589" style="stop-color:#EAEBEC"/>
	<stop  offset="1" style="stop-color:#FFFFFF"/>
</linearGradient>
<path class="st10" d="M392,493l134.2,92.9L345.8,851.1c-14.2,20.8-54,18.2-88.8-5.9l-7.9-5.5c-34.8-24.1-51.6-60.7-37.4-81.5
	L392,493z"/>
<linearGradient id="SVGID_10_" gradientUnits="userSpaceOnUse" x1="494.2445" y1="756.2031" x2="871.3002" y2="756.2031" gradientTransform="matrix(-0.5656 0.8246 -0.8246 -0.5656 1371.3564 552.0618)">
	<stop  offset="0" style="stop-color:#FFFFFF"/>
	<stop  offset="0.411" style="stop-color:#EAEBEC"/>
	<stop  offset="0.5063" style="stop-color:#E4E6E7"/>
	<stop  offset="1" style="stop-color:#C6CDD1"/>
</linearGradient>
<path class="st11" d="M213.6,757.8l185.6-273.2L535.6,579L349.9,852.2c-14.4,21.2-54.8,18.5-90.2-6l-8.2-5.6
	C216.2,816,199.2,779,213.6,757.8z"/>
<linearGradient id="SVGID_11_" gradientUnits="userSpaceOnUse" x1="309.8628" y1="930.6633" x2="675.4321" y2="930.6633" gradientTransform="matrix(-0.8246 -0.5656 0.5656 -0.8246 127.9944 1414.296)">
	<stop  offset="0" style="stop-color:#C6CDD1"/>
	<stop  offset="0.4937" style="stop-color:#E4E6E7"/>
	<stop  offset="0.589" style="stop-color:#EAEBEC"/>
	<stop  offset="1" style="stop-color:#FFFFFF"/>
</linearGradient>
<path class="st12" d="M444.2,404.2l-92,135.4L89.4,357.7c-20.6-14.3-18-54.5,5.9-89.6l5.4-8c23.9-35.1,60.1-52.1,80.7-37.8
	L444.2,404.2z"/>
<linearGradient id="SVGID_12_" gradientUnits="userSpaceOnUse" x1="314.0974" y1="659.9574" x2="438.4635" y2="659.9574" gradientTransform="matrix(1 -2.734151e-003 2.734151e-003 1 -1.3365 1.3977)">
	<stop  offset="0" style="stop-color:#FF488E"/>
	<stop  offset="0.371" style="stop-color:#FF619D"/>
	<stop  offset="0.7318" style="stop-color:#FF72A7"/>
	<stop  offset="1" style="stop-color:#FF78AB"/>
</linearGradient>
<path class="st13" d="M428,695.8c-19.4,28.6-58.1,35.9-86.4,16.3c-28.3-19.6-35.5-58.7-16.1-87.2c19.4-28.6,58.1-35.9,86.4-16.3
	C440.2,628.2,447.4,667.2,428,695.8z"/>
<defs>
	<filter id="Adobe_OpacityMaskFilter_1_" filterUnits="userSpaceOnUse" x="314.6" y="598" width="124.6" height="124.7">
		<feColorMatrix  type="matrix" values="1 0 0 0 0  0 1 0 0 0  0 0 1 0 0  0 0 0 1 0"/>
	</filter>
</defs>
<mask maskUnits="userSpaceOnUse" x="314.6" y="598" width="124.6" height="124.7" id="SVGID_13_">
	<g class="st14">
		
			<linearGradient id="SVGID_14_" gradientUnits="userSpaceOnUse" x1="1972.1709" y1="1205.8427" x2="1997.217" y2="1264.9662" gradientTransform="matrix(0.9715 0.2636 -0.2611 0.962 -1232.4957 -1078.551)">
			<stop  offset="0" style="stop-color:#FFFFFF"/>
			<stop  offset="9.435117e-003" style="stop-color:#FCFCFC"/>
			<stop  offset="0.288" style="stop-color:#B0AFAF"/>
			<stop  offset="0.5361" style="stop-color:#737172"/>
			<stop  offset="0.7447" style="stop-color:#484445"/>
			<stop  offset="0.9059" style="stop-color:#2D292A"/>
			<stop  offset="1" style="stop-color:#231F20"/>
		</linearGradient>
		<path class="st15" d="M437.1,676.8c-8.9,33.2-43.1,52.8-76.3,43.7c-33.2-9.1-52.9-43.4-44-76.6c8.9-33.2,43.1-52.8,76.3-43.7
			C426.4,609.3,446.1,643.6,437.1,676.8z"/>
	</g>
</mask>
<radialGradient id="SVGID_15_" cx="1996.8744" cy="1260.2804" r="62.5065" gradientTransform="matrix(0.9626 0.2636 -0.2587 0.962 -1219.1736 -1078.551)" gradientUnits="userSpaceOnUse">
	<stop  offset="0" style="stop-color:#FFFFFF"/>
	<stop  offset="0.3516" style="stop-color:#FDFDFD"/>
	<stop  offset="0.5083" style="stop-color:#F6F7F7"/>
	<stop  offset="0.6262" style="stop-color:#E9EBED"/>
	<stop  offset="0.7249" style="stop-color:#D7DBDE"/>
	<stop  offset="0.8113" style="stop-color:#C0C6CA"/>
	<stop  offset="0.8893" style="stop-color:#A3ADB2"/>
	<stop  offset="0.9594" style="stop-color:#818F96"/>
	<stop  offset="1" style="stop-color:#6A7A83"/>
</radialGradient>
<path class="st16" d="M437.1,676.8c-8.9,33.2-43.1,52.8-76.3,43.7c-33.2-9.1-52.9-43.4-44-76.6c8.9-33.2,43.1-52.8,76.3-43.7
	C426.4,609.3,446.1,643.6,437.1,676.8z"/>
<linearGradient id="SVGID_16_" gradientUnits="userSpaceOnUse" x1="298.8452" y1="927.9986" x2="674.6498" y2="927.9986" gradientTransform="matrix(-0.8246 -0.5656 0.5656 -0.8246 127.9944 1414.296)">
	<stop  offset="0" style="stop-color:#FFFFFF"/>
	<stop  offset="0.411" style="stop-color:#EAEBEC"/>
	<stop  offset="0.5063" style="stop-color:#E4E6E7"/>
	<stop  offset="1" style="stop-color:#C6CDD1"/>
</linearGradient>
<path class="st17" d="M181.9,224.2l270.7,187.4L359,549.2L88.4,361.8c-21-14.5-18.3-55.3,5.9-91l5.6-8.2
	C124.2,226.8,160.9,209.7,181.9,224.2z"/>
<linearGradient id="SVGID_17_" gradientUnits="userSpaceOnUse" x1="270.4805" y1="433.3291" x2="394.8466" y2="433.3291" gradientTransform="matrix(1 -2.734151e-003 2.734151e-003 1 -1.3365 1.3977)">
	<stop  offset="0" style="stop-color:#2AB8C1"/>
	<stop  offset="1" style="stop-color:#2CC0C9"/>
</linearGradient>
<path class="st18" d="M383.8,469.3c-19.4,28.6-58.1,35.9-86.4,16.3c-28.3-19.6-35.5-58.7-16.1-87.2c19.4-28.6,58.1-35.9,86.4-16.3
	C396,401.7,403.2,440.7,383.8,469.3z"/>
<defs>
	<filter id="Adobe_OpacityMaskFilter_2_" filterUnits="userSpaceOnUse" x="270.4" y="371.5" width="124.6" height="124.7">
		<feColorMatrix  type="matrix" values="1 0 0 0 0  0 1 0 0 0  0 0 1 0 0  0 0 0 1 0"/>
	</filter>
</defs>
<mask maskUnits="userSpaceOnUse" x="270.4" y="371.5" width="124.6" height="124.7" id="SVGID_18_">
	<g class="st19">
		
			<linearGradient id="SVGID_19_" gradientUnits="userSpaceOnUse" x1="1758.8514" y1="1004.2437" x2="1783.8976" y2="1063.3673" gradientTransform="matrix(0.9715 0.2636 -0.2611 0.962 -1122.1189 -1054.8778)">
			<stop  offset="0" style="stop-color:#FFFFFF"/>
			<stop  offset="9.435117e-003" style="stop-color:#FCFCFC"/>
			<stop  offset="0.288" style="stop-color:#B0AFAF"/>
			<stop  offset="0.5361" style="stop-color:#737172"/>
			<stop  offset="0.7447" style="stop-color:#484445"/>
			<stop  offset="0.9059" style="stop-color:#2D292A"/>
			<stop  offset="1" style="stop-color:#231F20"/>
		</linearGradient>
		<path class="st20" d="M392.9,450.3c-8.9,33.2-43.1,52.8-76.3,43.7c-33.2-9.1-52.9-43.4-44-76.6c8.9-33.2,43.1-52.8,76.3-43.7
			C382.1,382.8,401.8,417.1,392.9,450.3z"/>
	</g>
</mask>
<radialGradient id="SVGID_20_" cx="1783.1602" cy="1058.7898" r="62.5068" gradientTransform="matrix(0.9626 0.2636 -0.2587 0.962 -1109.8147 -1054.8778)" gradientUnits="userSpaceOnUse">
	<stop  offset="0" style="stop-color:#FFFFFF"/>
	<stop  offset="0.3516" style="stop-color:#FDFDFD"/>
	<stop  offset="0.5083" style="stop-color:#F6F7F7"/>
	<stop  offset="0.6262" style="stop-color:#E9EBED"/>
	<stop  offset="0.7249" style="stop-color:#D7DBDE"/>
	<stop  offset="0.8113" style="stop-color:#C0C6CA"/>
	<stop  offset="0.8893" style="stop-color:#A3ADB2"/>
	<stop  offset="0.9594" style="stop-color:#818F96"/>
	<stop  offset="1" style="stop-color:#6A7A83"/>
</radialGradient>
<path class="st21" d="M392.9,450.3c-8.9,33.2-43.1,52.8-76.3,43.7c-33.2-9.1-52.9-43.4-44-76.6c8.9-33.2,43.1-52.8,76.3-43.7
	C382.1,382.8,401.8,417.1,392.9,450.3z"/>
<linearGradient id="SVGID_21_" gradientUnits="userSpaceOnUse" x1="541.7393" y1="615.7063" x2="666.1055" y2="615.7063" gradientTransform="matrix(1 -2.734151e-003 2.734151e-003 1 -1.3365 1.3977)">
	<stop  offset="0" style="stop-color:#A6987C"/>
	<stop  offset="0.2029" style="stop-color:#B0A183"/>
	<stop  offset="0.6597" style="stop-color:#C1B090"/>
	<stop  offset="1" style="stop-color:#C7B694"/>
</linearGradient>
<path class="st22" d="M655.5,650.9c-19.4,28.6-58.1,35.9-86.4,16.3c-28.3-19.6-35.5-58.7-16.1-87.2c19.4-28.6,58.1-35.9,86.4-16.3
	C667.8,583.3,675,622.4,655.5,650.9z"/>
<defs>
	<filter id="Adobe_OpacityMaskFilter_3_" filterUnits="userSpaceOnUse" x="542.2" y="553.1" width="124.6" height="124.7">
		<feColorMatrix  type="matrix" values="1 0 0 0 0  0 1 0 0 0  0 0 1 0 0  0 0 0 1 0"/>
	</filter>
</defs>
<mask maskUnits="userSpaceOnUse" x="542.2" y="553.1" width="124.6" height="124.7" id="SVGID_22_">
	<g class="st23">
		
			<linearGradient id="SVGID_23_" gradientUnits="userSpaceOnUse" x1="2253.2092" y1="1008.863" x2="2278.2554" y2="1067.9863" gradientTransform="matrix(0.9715 0.2636 -0.2611 0.962 -1329.436 -1008.0208)">
			<stop  offset="0" style="stop-color:#FFFFFF"/>
			<stop  offset="9.435117e-003" style="stop-color:#FCFCFC"/>
			<stop  offset="0.288" style="stop-color:#B0AFAF"/>
			<stop  offset="0.5361" style="stop-color:#737172"/>
			<stop  offset="0.7447" style="stop-color:#484445"/>
			<stop  offset="0.9059" style="stop-color:#2D292A"/>
			<stop  offset="1" style="stop-color:#231F20"/>
		</linearGradient>
		<path class="st24" d="M664.6,631.9c-8.9,33.2-43.1,52.8-76.3,43.7c-33.2-9.1-52.9-43.4-44-76.6c8.9-33.2,43.1-52.8,76.3-43.7
			C653.9,564.4,673.6,598.7,664.6,631.9z"/>
	</g>
</mask>
<radialGradient id="SVGID_24_" cx="2279.9431" cy="1062.7443" r="62.5065" gradientTransform="matrix(0.9626 0.2636 -0.2587 0.962 -1315.2198 -1008.0208)" gradientUnits="userSpaceOnUse">
	<stop  offset="0" style="stop-color:#FFFFFF"/>
	<stop  offset="0.3516" style="stop-color:#FDFDFD"/>
	<stop  offset="0.5083" style="stop-color:#F6F7F7"/>
	<stop  offset="0.6262" style="stop-color:#E9EBED"/>
	<stop  offset="0.7249" style="stop-color:#D7DBDE"/>
	<stop  offset="0.8113" style="stop-color:#C0C6CA"/>
	<stop  offset="0.8893" style="stop-color:#A3ADB2"/>
	<stop  offset="0.9594" style="stop-color:#818F96"/>
	<stop  offset="1" style="stop-color:#6A7A83"/>
</radialGradient>
<path class="st25" d="M664.6,631.9c-8.9,33.2-43.1,52.8-76.3,43.7c-33.2-9.1-52.9-43.4-44-76.6c8.9-33.2,43.1-52.8,76.3-43.7
	C653.9,564.4,673.6,598.7,664.6,631.9z"/>
<g>
	<path class="st7" d="M638.5,614.6c-4,5.9-10.3,9.5-18.9,10.7c-7.5,0.4-15,0.9-22.6,1.4c-8.5,1-14.6,4.3-18.4,9.9l30,20.8l-5,7.4
		l-38-26.3c0.9-1.6,1.8-2.9,2.6-4.1c5.8-8.6,13.4-14,22.8-16.3c2.2-0.6,9.9-1.2,23.1-2c8.1-0.5,13.6-2.8,16.4-7
		c4.9-7.2,3.6-13.4-4-18.6c-6.3-4.4-13.2-5.2-20.6-2.6l-1.6-8.3c5.3-2.1,10.7-2.5,16.4-1.3c4,0.9,7.6,2.5,10.9,4.7
		c5.5,3.8,9,8.6,10.5,14.3C643.5,603.2,642.3,608.9,638.5,614.6z"/>
</g>
<g>
	<path class="st7" d="M391.2,691.6c-1.8,2.6-4.3,4.8-7.6,6.5c-4.5,2.3-9.3,3.3-14.4,2.7c-4.9-0.5-9.4-2.2-13.7-5.2
		c-6.4-4.4-11-10.2-14-17.4l5.1-7.5c3.5,7.7,8.2,13.5,13.9,17.5c3.5,2.4,7.6,3.5,12.2,3.2c4.9-0.3,8.6-2.2,10.9-5.6
		c6.2-9.2,4.9-16.8-4.1-23l-4.8-3.3l5.1-7.5l4.5,3.1c3.2,2.2,6.7,3.1,10.3,2.4c3.6-0.6,6.5-2.5,8.7-5.8c2.4-3.5,2.8-7.2,1.5-11.3
		c-1.3-3.6-3.7-6.7-7.2-9.2c-5.3-3.7-10.7-6.8-16.2-9.5l4.9-7.2c6.2,3.1,10.7,5.6,13.6,7.6c15.8,10.9,19.5,22.4,11.4,34.4
		c-4.1,6.1-10.1,9.3-17.8,9.7C398.1,674.2,397.3,682.6,391.2,691.6z"/>
</g>
<g>
	<path class="st7" d="M350.1,474.3l-11.6-8l-9.1,13.4l-7.9-5.5l9.1-13.4l-32.2-22.3c14-13.4,29.6-28.7,46.9-45.9l7.9,5.5
		c-7.9,8.4-21.1,21.7-39.6,40l22.1,15.3l15.5-22.8l7.9,5.5l-15.5,22.8l11.6,8L350.1,474.3z"/>
</g>
<polygon class="st26" points="404.7,551.4 383.7,536.9 431.7,466.2 452.7,480.7 "/>
<polygon class="st27" points="436.3,573.3 415.2,558.7 481.3,461.5 502.4,476 "/>
<polygon class="st28" points="465.8,593.7 444.7,579.1 489.8,512.7 510.9,527.3 "/>
<polygon class="st29" points="497.3,615.5 476.3,601 506.3,556.9 527.3,571.4 "/>
<g>
	<g>
		<g>
			<polygon class="st26" points="579.1,264.3 575.8,261.9 578.9,257.4 582.3,259.8 			"/>
		</g>
		<g>
			<path class="st26" d="M653.9,317.2l-6.2-4.4l3.1-4.5l6.2,4.4L653.9,317.2z M641.4,308.4l-6.2-4.4l3.1-4.5l6.2,4.4L641.4,308.4z
				 M628.9,299.6l-6.2-4.4l3.1-4.5l6.2,4.4L628.9,299.6z M616.5,290.8l-6.2-4.4l3.1-4.5l6.2,4.4L616.5,290.8z M604,281.9l-6.2-4.4
				l3.1-4.5l6.2,4.4L604,281.9z M591.6,273.1l-6.2-4.4l3.1-4.5l6.2,4.4L591.6,273.1z"/>
		</g>
		<g>
			<polygon class="st26" points="663.4,324 660.1,321.6 663.2,317.1 666.6,319.5 			"/>
		</g>
	</g>
	<g>
		<path class="st26" d="M668.5,323.7l-1.2-8.2l5.4-0.8l1.2,8.2L668.5,323.7z M666.1,307.3l-1.2-8.2l5.4-0.8l1.2,8.2L666.1,307.3z
			 M663.6,290.9l-1.2-8.2l5.4-0.8l1.2,8.2L663.6,290.9z"/>
	</g>
	<g>
		<path class="st26" d="M628.5,332.1l-0.2-5.5l8.2-0.3l0.2,5.5L628.5,332.1z M644.9,331.5l-0.2-5.5l8.2-0.3l0.2,5.5L644.9,331.5z
			 M661.3,331l-0.2-5.5l8.2-0.3l0.2,5.5L661.3,331z"/>
	</g>
</g>
<g>
	<g>
		<g>
			<polygon class="st28" points="354.6,803.6 358,806 354.8,810.5 351.4,808.1 			"/>
		</g>
		<g>
			<path class="st28" d="M279.9,750.6l6.2,4.4l-3.1,4.5l-6.2-4.4L279.9,750.6z M292.3,759.5l6.2,4.4l-3.1,4.5l-6.2-4.4L292.3,759.5z
				 M304.8,768.3l6.2,4.4l-3.1,4.5l-6.2-4.4L304.8,768.3z M317.2,777.1l6.2,4.4l-3.1,4.5l-6.2-4.4L317.2,777.1z M329.7,785.9
				l6.2,4.4l-3.1,4.5l-6.2-4.4L329.7,785.9z M342.1,794.8l6.2,4.4l-3.1,4.5l-6.2-4.4L342.1,794.8z"/>
		</g>
		<g>
			<polygon class="st28" points="270.3,743.9 273.7,746.2 270.5,750.8 267.2,748.4 			"/>
		</g>
	</g>
	<g>
		<path class="st28" d="M265.2,744.2l1.2,8.2l-5.4,0.8l-1.2-8.2L265.2,744.2z M267.6,760.6l1.2,8.2l-5.4,0.8l-1.2-8.2L267.6,760.6z
			 M270.1,777l1.2,8.2l-5.4,0.8l-1.2-8.2L270.1,777z"/>
	</g>
	<g>
		<path class="st28" d="M305.3,735.8l0.2,5.5l-8.2,0.3l-0.2-5.5L305.3,735.8z M288.9,736.3l0.2,5.5l-8.2,0.3l-0.2-5.5L288.9,736.3z
			 M272.4,736.9l0.2,5.5l-8.2,0.3l-0.2-5.5L272.4,736.9z"/>
	</g>
</g>
<g>
	<g>
		<g>
			<polygon class="st27" points="785.1,678.7 787.5,675.3 792,678.6 789.6,682 			"/>
		</g>
		<g>
			<path class="st27" d="M731.4,753.2l4.5-6.2l4.4,3.3l-4.5,6.2L731.4,753.2z M740.4,740.8l4.5-6.2l4.4,3.3l-4.5,6.2L740.4,740.8z
				 M749.3,728.4l4.5-6.2l4.4,3.3l-4.5,6.2L749.3,728.4z M758.3,715.9l4.5-6.2l4.4,3.3l-4.5,6.2L758.3,715.9z M767.2,703.5l4.5-6.2
				l4.4,3.3l-4.5,6.2L767.2,703.5z M776.2,691.1l4.5-6.2l4.4,3.3l-4.5,6.2L776.2,691.1z"/>
		</g>
		<g>
			<polygon class="st27" points="724.5,762.7 726.9,759.4 731.4,762.6 729,766 			"/>
		</g>
	</g>
	<g>
		<path class="st27" d="M724.8,767.9l8.1-1.1l0.7,5.5l-8.1,1.1L724.8,767.9z M741.1,765.7l8.1-1.1l0.7,5.5l-8.1,1.1L741.1,765.7z
			 M757.3,763.5l8.1-1.1l0.7,5.5l-8.1,1.1L757.3,763.5z"/>
	</g>
	<g>
		<path class="st27" d="M717.1,727.3l5.5-0.1l0.1,8.3l-5.5,0.1L717.1,727.3z M717.4,743.9l5.5-0.1l0.1,8.3l-5.5,0.1L717.4,743.9z
			 M717.7,760.5l5.5-0.1l0.1,8.3l-5.5,0.1L717.7,760.5z"/>
	</g>
</g>
<g>
	<g>
		<g>
			<polygon class="st29" points="152,373.9 149.6,377.3 145.2,374 147.6,370.7 			"/>
		</g>
		<g>
			<path class="st29" d="M205.7,299.4l-4.5,6.2l-4.4-3.3l4.5-6.2L205.7,299.4z M196.8,311.9l-4.5,6.2l-4.4-3.3l4.5-6.2L196.8,311.9z
				 M187.8,324.3l-4.5,6.2l-4.4-3.3l4.5-6.2L187.8,324.3z M178.8,336.7l-4.5,6.2l-4.4-3.3l4.5-6.2L178.8,336.7z M169.9,349.1
				l-4.5,6.2l-4.4-3.3l4.5-6.2L169.9,349.1z M160.9,361.5l-4.5,6.2l-4.4-3.3l4.5-6.2L160.9,361.5z"/>
		</g>
		<g>
			<polygon class="st29" points="212.6,289.9 210.2,293.2 205.8,290 208.2,286.6 			"/>
		</g>
	</g>
	<g>
		<path class="st29" d="M212.3,284.7l-8.1,1.1l-0.7-5.5l8.1-1.1L212.3,284.7z M196.1,286.9l-8.1,1.1l-0.7-5.5l8.1-1.1L196.1,286.9z
			 M179.8,289.1l-8.1,1.1l-0.7-5.5l8.1-1.1L179.8,289.1z"/>
	</g>
	<g>
		<path class="st29" d="M220,325.3l-5.5,0.1l-0.1-8.3l5.5-0.1L220,325.3z M219.7,308.7l-5.5,0.1l-0.1-8.3l5.5-0.1L219.7,308.7z
			 M219.5,292.2l-5.5,0.1l-0.1-8.3l5.5-0.1L219.5,292.2z"/>
	</g>
</g>
<text transform="matrix(0.8156 0.5731 -0.5678 0.8232 325.5229 113.5513)"><tspan x="0" y="0" class="st7 st30 st31">Adobe Photoshop</tspan><tspan x="0" y="33.1" class="st7 st30 st31">Adobe Illustrator</tspan></text>
<text transform="matrix(0.8156 0.5731 -0.5678 0.8232 360.8634 62.3124)" class="st29 st32 st33">Design Skills</text>
<text transform="matrix(0.8156 0.5731 -0.5678 0.8232 724.7572 317.9924)" class="st26 st32 st33">Front-End Skills</text>
<text transform="matrix(0.8156 0.5731 -0.5678 0.8232 508.4051 721.5058)" class="st27 st32 st33">Back-End Skills</text>
<text transform="matrix(0.8156 0.5731 -0.5678 0.8232 757.9659 401.5221)"><tspan x="0" y="0" class="st7 st30 st31">HTML5</tspan><tspan x="0" y="33.1" class="st7 st30 st31">CSS3</tspan><tspan x="0" y="66.1" class="st7 st30 st31">Angular JS</tspan><tspan x="0" y="99.2" class="st7 st30 st31">Javascript</tspan><tspan x="0" y="132.2" class="st7 st30 st31">Jquery</tspan><tspan x="0" y="165.3" class="st7 st30 st31">SASS</tspan></text>
<text transform="matrix(0.8156 0.5731 -0.5678 0.8232 70.2303 413.6384)" class="st28 st32 st33">Other Skills</text>
<text transform="matrix(0.8156 0.5731 -0.5678 0.8232 65.9312 489.9278)"><tspan x="0" y="0" class="st7 st30 st31">Powershell</tspan><tspan x="0" y="33.1" class="st7 st30 st31">VBScript</tspan><tspan x="0" y="66.1" class="st7 st30 st31">Unit Testing</tspan></text>
<text transform="matrix(0.8156 0.5731 -0.5678 0.8232 488.3629 786.7379)"><tspan x="0" y="0" class="st7 st30 st31">Asp.net</tspan><tspan x="0" y="33.1" class="st7 st30 st31">Node JS and MongoDB</tspan><tspan x="0" y="66.1" class="st7 st30 st31">C#(Basic)</tspan><tspan x="0" y="99.2" class="st7 st30 st31">PHP(Basic)</tspan></text>
</svg>
