<?xml version="1.0" standalone="no"?>
<!DOCTYPE svg PUBLIC "-//W3C//DTD SVG 20010904//EN"
 "http://www.w3.org/TR/2001/REC-SVG-20010904/DTD/svg10.dtd">
<svg version="1.0" xmlns="http://www.w3.org/2000/svg"
 width="722.000000pt" height="722.000000pt" viewBox="0 0 722.000000 722.000000"
 preserveAspectRatio="xMidYMid meet">
<metadata>
Created by potrace 1.11, written by Peter Selinger 2001-2013
</metadata>
<g transform="translate(0.000000,722.000000) scale(0.100000,-0.100000)"
fill="#000000" stroke="none">
<path d="M2900 6143 c-40 -12 -60 -29 -70 -59 -14 -41 -6 -70 25 -90 24 -15
24 -17 10 -51 -40 -95 -162 -152 -461 -218 -298 -66 -323 -76 -397 -151 -177
-179 -176 -456 2 -616 93 -84 270 -157 424 -175 80 -9 263 -9 349 0 341 36
636 199 770 423 18 30 35 54 38 54 3 0 20 -24 38 -54 158 -265 511 -428 932
-430 244 -2 432 48 572 151 172 126 221 343 122 539 -32 63 -112 147 -166 175
-33 17 -172 53 -383 100 -223 49 -345 111 -389 196 -16 32 -16 34 5 50 52 44
44 119 -16 147 -70 34 -152 -9 -174 -92 -24 -84 -10 -140 49 -205 44 -48 48
-56 46 -101 -1 -43 3 -51 32 -76 48 -40 112 -55 252 -60 7 0 -5 -12 -27 -27
-44 -28 -60 -52 -65 -93 -6 -48 61 -28 152 45 95 77 139 97 221 101 67 3 93
-9 30 -14 -43 -3 -121 -30 -154 -54 -57 -41 -92 -162 -64 -227 18 -43 68 -90
103 -97 89 -17 174 63 152 144 -15 58 -116 96 -148 57 -24 -29 -23 -6 1 30 39
56 112 75 195 50 103 -31 163 -119 169 -245 4 -101 -20 -181 -78 -265 l-21
-29 -6 24 c-8 36 -33 36 -85 0 -167 -115 -437 -161 -630 -108 -62 17 -221 86
-213 93 2 1 50 5 108 8 58 3 129 13 159 22 65 20 117 66 103 91 -6 10 -5 27 1
45 8 20 8 35 -1 53 -14 31 -31 32 -134 10 -66 -14 -194 -19 -258 -9 -175 25
-272 80 -339 193 -49 83 -39 161 24 187 19 8 45 15 58 15 26 0 57 28 57 51 0
24 -52 68 -89 75 -25 5 -39 2 -62 -16 l-31 -22 18 26 c22 34 44 46 86 46 92 0
140 -119 71 -179 -34 -29 -33 -53 2 -69 78 -36 168 48 160 149 -16 182 -232
269 -357 145 l-26 -27 -33 30 c-60 55 -161 71 -229 36 -40 -21 -87 -70 -107
-113 -25 -52 -22 -132 7 -172 23 -32 74 -61 101 -56 66 11 83 45 39 78 -35 25
-44 59 -30 104 29 87 149 101 191 23 10 -20 10 -20 -19 1 -45 33 -113 15 -141
-38 -22 -42 1 -68 69 -77 38 -5 61 -19 75 -45 21 -42 19 -84 -10 -139 -49 -97
-143 -164 -272 -194 -81 -19 -262 -19 -338 -2 -90 22 -113 20 -127 -11 -9 -18
-9 -33 -1 -53 6 -18 7 -35 1 -45 -14 -25 38 -71 103 -90 30 -9 101 -19 159
-23 58 -3 106 -6 108 -8 7 -6 -141 -71 -207 -91 -64 -20 -90 -23 -205 -20 -72
2 -142 7 -155 10 -114 27 -198 62 -279 118 -48 33 -74 33 -82 0 l-5 -24 -21
29 c-82 111 -104 266 -53 383 63 148 282 186 349 61 11 -22 11 -23 -6 -16 -62
26 -120 8 -146 -46 -39 -79 50 -173 146 -155 40 8 90 59 106 109 26 82 -22
196 -96 232 -22 10 -41 18 -44 18 -3 -1 -12 3 -21 8 -9 4 -33 9 -53 11 -20 1
-36 6 -36 11 0 13 124 0 164 -17 17 -7 65 -40 106 -73 105 -84 168 -103 162
-49 -5 39 -29 70 -74 96 -21 12 -38 22 -38 23 0 1 26 2 57 1 164 -2 257 53
246 145 -4 29 2 40 35 75 60 62 75 99 69 167 -5 62 -31 115 -67 137 -24 15
-67 22 -90 15z m59 -69 c72 -60 48 -176 -52 -246 -27 -19 -25 -14 15 31 71 79
78 164 17 215 -17 14 -26 26 -21 26 6 0 24 -12 41 -26z m1293 10 c-12 -8 -29
-28 -37 -44 -32 -62 -12 -130 59 -201 l41 -42 -42 32 c-80 61 -110 135 -83
201 13 31 54 70 74 70 6 0 0 -7 -12 -16z m-1367 -333 c-20 -20 -112 -59 -165
-71 -30 -6 -64 -14 -75 -17 -11 -3 -17 -3 -14 1 3 4 37 15 75 26 38 10 94 30
124 44 60 28 69 31 55 17z m1429 0 c5 -8 113 -49 186 -71 35 -10 35 -10 -9 -5
-58 7 -145 39 -177 64 -15 12 -22 21 -16 21 6 0 13 -4 16 -9z m253 -87 c-3 -3
-12 -4 -19 -1 -8 3 -5 6 6 6 11 1 17 -2 13 -5z m-2522 -217 c-43 -79 -55 -150
-39 -237 7 -36 17 -78 24 -95 20 -54 -14 -6 -40 55 -43 104 -24 219 50 304 18
20 34 36 36 36 2 0 -12 -28 -31 -63z m3138 -38 c36 -71 40 -134 14 -224 -6
-18 -57 -115 -62 -115 -2 0 3 17 12 38 26 61 40 171 30 226 -10 56 -38 118
-71 156 l-21 24 35 -25 c19 -15 47 -50 63 -80z m-1803 -233 c-26 -24 -108 -65
-164 -81 -61 -18 -185 -23 -258 -11 -80 14 -54 21 64 19 123 -1 245 22 323 63
50 26 53 27 35 10z m612 -60 c56 -11 121 -16 183 -14 52 2 95 0 95 -4 0 -23
-282 -28 -296 -6 -3 4 -13 8 -24 8 -20 0 -127 54 -149 75 -7 7 13 1 45 -15 33
-15 98 -35 146 -44z m928 -181 c0 -2 -12 -16 -27 -30 -36 -33 -113 -61 -188
-69 l-60 -6 70 19 c79 22 150 51 180 75 22 17 25 18 25 11z m-2622 -21 c29
-20 176 -74 202 -74 10 0 21 -4 24 -9 6 -9 -20 -6 -99 11 -58 12 -99 31 -138
64 -32 27 -24 33 11 8z"/>
<path d="M3475 4600 c-80 -32 -105 -46 -105 -59 0 -5 18 -7 39 -4 32 4 40 2
44 -13 8 -28 5 -576 -3 -598 -3 -10 -21 -26 -40 -35 -18 -9 -32 -20 -31 -26 2
-15 243 -13 248 2 3 7 -10 16 -29 21 -42 11 -58 41 -58 113 0 107 58 242 124
287 37 25 64 28 92 8 17 -13 19 -29 21 -203 2 -162 0 -190 -15 -206 -24 -27
-6 -33 95 -32 78 0 88 2 91 19 3 12 -1 17 -10 14 -7 -3 -25 1 -40 9 -32 15
-30 7 -34 213 -1 80 -3 159 -3 177 -1 40 -36 81 -75 87 -57 10 -156 -56 -221
-147 l-20 -27 0 195 c1 138 4 198 13 207 16 16 15 28 0 27 -7 -1 -44 -14 -83
-29z"/>
<path d="M2750 4579 c-26 -47 19 -100 65 -76 24 12 35 27 35 49 0 45 -79 67
-100 27z"/>
<path d="M1998 4579 c-10 -6 17 -39 32 -39 17 0 59 -87 105 -220 26 -74 49
-144 52 -155 3 -11 7 -27 11 -35 3 -8 26 -73 51 -145 30 -84 51 -131 61 -133
12 -2 45 70 134 295 133 334 154 376 198 399 48 25 21 37 -89 36 -145 0 -143
0 -137 -17 4 -8 17 -15 29 -15 58 0 72 -62 40 -172 -8 -26 -42 -117 -76 -203
l-61 -155 -33 92 c-129 371 -148 432 -137 436 13 4 17 31 5 33 -37 4 -177 3
-185 -2z"/>
<path d="M6408 4575 c-2 -1 -31 -5 -64 -8 -159 -15 -343 -82 -469 -170 -56
-39 -147 -132 -185 -187 -50 -74 -75 -124 -105 -213 -33 -101 -40 -157 -39
-327 2 -173 21 -259 89 -395 111 -224 318 -374 603 -437 132 -30 398 -32 517
-4 141 32 271 93 386 182 73 56 76 61 47 83 -12 10 -35 29 -49 42 -14 13 -61
56 -104 94 -43 39 -90 80 -103 92 l-25 23 -30 -26 c-47 -40 -134 -80 -218
-100 -54 -14 -245 -12 -299 2 -238 62 -373 245 -364 491 14 398 476 603 837
371 41 -26 50 -28 65 -17 19 15 186 174 239 228 l33 33 -38 31 c-53 42 -160
110 -207 131 -22 10 -49 21 -60 26 -28 13 -122 38 -170 45 -42 7 -281 15 -287
10z"/>
<path d="M145 4446 c-22 -7 -64 -25 -93 -40 l-52 -26 19 -38 c39 -79 142 -359
336 -917 40 -115 80 -229 88 -251 60 -164 165 -306 256 -347 95 -42 252 1 332
91 72 81 189 275 174 290 -3 3 -18 7 -33 9 -74 8 -92 15 -121 49 -29 32 -101
172 -101 194 0 6 -5 18 -10 28 -6 9 -47 127 -91 262 -156 471 -214 562 -416
662 -78 39 -95 43 -167 45 -47 2 -98 -3 -121 -11z"/>
<path d="M1301 4435 c-85 -24 -150 -65 -202 -127 -53 -64 -107 -156 -139 -236
l-20 -54 70 -215 c77 -237 123 -335 181 -387 45 -41 68 -40 115 5 42 41 79
123 163 364 38 110 84 238 101 285 63 167 109 311 104 324 -17 43 -267 70
-373 41z"/>
<path d="M3083 4369 c-45 -22 -83 -72 -83 -109 0 -49 29 -85 120 -143 94 -60
115 -83 124 -130 6 -35 -32 -82 -74 -91 -62 -12 -140 49 -140 110 0 25 -21 46
-35 36 -6 -4 -10 -40 -11 -79 l0 -73 40 -14 c64 -23 110 -25 165 -6 83 28 131
85 131 155 0 20 -5 45 -10 55 -6 11 -57 51 -113 89 -57 39 -108 81 -113 93
-14 34 -6 66 21 84 50 32 126 -17 139 -91 5 -26 12 -35 26 -35 18 0 20 7 20
74 l0 74 -31 11 c-51 18 -129 13 -176 -10z"/>
<path d="M4688 4375 c-37 -8 -72 -17 -78 -20 -17 -11 0 -25 30 -25 16 0 32 -6
36 -12 5 -7 9 -96 9 -198 1 -152 5 -191 18 -217 38 -72 132 -57 219 33 29 30
56 61 61 69 16 30 22 13 22 -57 -2 -111 -6 -109 108 -61 71 29 88 50 36 45
-57 -6 -59 1 -59 215 0 161 3 198 16 218 19 29 16 30 -67 15 -78 -14 -103 -18
-111 -19 -5 -1 -8 -8 -8 -17 0 -9 7 -14 18 -13 30 5 60 -11 66 -34 26 -99 -22
-258 -104 -338 -46 -46 -103 -48 -120 -4 -15 40 -9 393 7 406 16 14 8 29 -15
28 -9 0 -47 -7 -84 -14z"/>
<path d="M2746 4350 c-38 -14 -73 -34 -78 -44 -8 -15 -5 -16 30 -10 22 3 42 2
45 -3 6 -10 10 -142 8 -289 -1 -79 -18 -114 -58 -117 -14 -1 -23 -8 -23 -17 0
-14 17 -16 123 -14 67 1 126 2 131 3 15 2 -16 31 -34 31 -9 0 -25 9 -35 19
-15 18 -17 44 -17 240 -1 154 -4 221 -12 224 -6 3 -42 -8 -80 -23z"/>
<path d="M4080 4352 c-36 -15 -71 -31 -78 -35 -21 -14 -3 -27 27 -21 45 9 51
-14 51 -193 0 -171 -8 -203 -50 -213 -14 -3 -26 -13 -28 -21 -2 -12 17 -15
123 -14 107 0 125 2 123 15 -2 8 -9 16 -16 16 -6 1 -19 2 -27 3 -44 4 -60 111
-32 218 16 60 68 150 102 176 35 25 76 31 100 14 18 -14 19 -28 20 -207 0
-138 -3 -194 -11 -197 -7 -2 -11 -12 -10 -21 3 -14 16 -17 90 -17 99 -1 131
15 72 35 -20 6 -39 17 -43 23 -5 7 -8 89 -9 182 -1 193 -6 235 -33 259 -55 50
-169 2 -246 -103 -16 -22 -33 -41 -36 -41 -4 0 -7 33 -7 73 0 92 -1 97 -9 96
-5 0 -37 -12 -73 -27z"/>
<path d="M6440 4005 c-36 -6 -82 -19 -103 -28 -58 -25 -141 -114 -165 -177
-52 -139 10 -302 141 -374 90 -50 165 -61 265 -40 160 33 266 156 266 309 0
83 -23 142 -79 203 -57 64 -120 93 -245 116 -8 1 -44 -3 -80 -9z"/>
<path d="M4565 3430 c-11 -4 -52 -20 -92 -35 -51 -20 -70 -32 -66 -42 4 -10
14 -12 33 -8 39 8 46 -8 48 -102 l1 -82 -43 13 c-90 27 -171 1 -243 -77 -100
-109 -125 -241 -66 -355 35 -69 79 -96 141 -88 61 8 107 43 190 145 l19 25 1
-65 c0 -128 -6 -123 97 -81 79 32 95 52 41 50 -20 -1 -39 2 -43 6 -4 4 -8 152
-9 329 -1 254 2 327 13 344 21 35 17 39 -22 23z m-129 -313 c48 -25 58 -43 56
-106 -2 -99 -59 -227 -116 -262 -50 -31 -98 -25 -134 15 -41 47 -55 96 -50
170 13 173 115 250 244 183z"/>
<path d="M2436 3391 c-96 -39 -122 -63 -64 -59 19 1 38 -1 44 -4 6 -4 9 -122
9 -308 l0 -302 -24 -19 c-13 -10 -32 -19 -42 -19 -10 0 -19 -7 -19 -15 0 -13
21 -15 131 -15 97 0 130 3 127 12 -3 7 -17 15 -32 19 -43 12 -55 36 -56 109 0
147 70 284 158 309 25 8 36 6 54 -9 22 -17 22 -24 23 -205 0 -140 -3 -191 -12
-201 -28 -28 -13 -34 87 -34 106 0 124 10 66 34 -19 8 -39 23 -44 33 -5 10
-10 88 -10 173 0 223 1 215 -28 249 -57 68 -158 24 -273 -119 l-20 -25 1 190
c1 146 4 195 15 211 8 12 10 24 6 27 -4 2 -48 -12 -97 -32z"/>
<path d="M1988 3379 c-109 -17 -226 -107 -280 -216 -67 -136 -45 -322 48 -417
68 -68 123 -91 219 -91 69 1 89 5 145 33 88 43 164 102 168 131 l4 23 -34 -25
c-138 -106 -297 -109 -398 -8 -147 147 -114 444 58 519 49 21 136 23 190 4 54
-18 110 -74 118 -118 4 -24 12 -34 25 -34 15 0 19 8 20 38 0 20 1 58 2 85 2
44 0 48 -28 56 -80 25 -176 32 -257 20z"/>
<path d="M3190 3178 c-25 -4 -73 -22 -107 -39 l-63 -32 0 -68 c0 -61 2 -69 19
-69 14 0 21 9 26 33 11 50 53 115 85 132 71 37 120 9 120 -68 l0 -46 -81 -42
c-97 -51 -173 -108 -200 -152 -47 -78 -1 -177 83 -177 35 0 100 36 143 79 22
22 45 40 50 41 6 0 9 -19 7 -43 -6 -67 35 -95 91 -66 47 25 97 72 97 90 0 19
-2 18 -33 -5 -19 -15 -41 -26 -50 -26 -19 0 -18 -15 -19 249 -1 151 -3 165
-22 188 -24 28 -71 35 -146 21z m85 -250 c-11 -74 -27 -117 -59 -154 -54 -61
-122 -62 -155 -2 -13 23 -13 30 3 65 19 42 87 95 152 118 62 22 66 20 59 -27z"/>
<path d="M4852 3165 c-55 -25 -106 -80 -136 -144 -31 -69 -30 -202 3 -254 30
-50 56 -74 105 -99 83 -43 198 1 289 110 47 58 32 71 -24 21 -44 -40 -105 -69
-148 -69 -56 0 -116 42 -145 103 -24 48 -38 118 -29 142 2 6 65 10 168 10 91
-1 171 2 177 6 16 10 -9 94 -40 131 -54 64 -139 80 -220 43z m127 -49 c27 -26
56 -93 43 -99 -4 -2 -61 -3 -127 -2 -134 1 -136 2 -94 71 39 64 127 79 178 30z"/>
<path d="M3558 3142 c-49 -19 -68 -32 -68 -45 0 -13 4 -16 18 -9 9 4 22 8 27
8 32 -3 35 -18 35 -197 0 -166 -1 -180 -20 -199 -11 -11 -29 -20 -40 -20 -11
0 -20 -7 -20 -15 0 -13 21 -15 125 -15 104 0 125 2 125 15 0 8 -9 15 -19 15
-10 0 -29 9 -42 19 -20 16 -24 29 -25 83 0 34 3 81 8 103 21 92 88 195 142
215 23 8 66 -4 78 -23 12 -18 10 -385 -2 -392 -5 -3 -10 -13 -10 -21 0 -11 19
-14 95 -14 75 0 95 3 95 14 0 8 -13 17 -29 21 -52 11 -54 22 -57 218 -1 100
-2 190 -3 200 -1 10 -12 29 -26 42 -53 54 -146 20 -234 -86 -57 -68 -55 -71
-52 54 2 68 -1 69 -101 29z"/>
<path d="M5178 3142 c-48 -19 -68 -32 -68 -44 0 -14 4 -16 23 -9 14 5 30 5 40
-1 16 -8 18 -28 17 -189 -2 -195 -4 -204 -60 -215 -14 -3 -27 -12 -27 -20 0
-11 27 -14 144 -14 114 0 143 3 143 14 0 8 -15 16 -38 19 -64 11 -77 27 -79
101 -3 116 41 246 97 286 36 25 56 25 78 0 17 -21 19 -25 21 -60 1 -24 41 -28
42 -5 4 95 0 148 -12 156 -46 29 -110 -5 -174 -92 -25 -34 -45 -55 -46 -48 0
8 0 44 0 82 1 79 0 79 -101 39z"/>
<path d="M2475 2439 c-131 -17 -155 -22 -225 -45 -251 -84 -382 -243 -374
-454 5 -154 102 -307 231 -367 29 -13 141 -44 250 -68 352 -79 456 -125 508
-225 14 -28 14 -31 -6 -47 -48 -41 -43 -120 9 -147 94 -48 197 40 191 163 -3
58 -21 95 -70 147 -34 35 -39 45 -35 76 11 89 -93 148 -253 143 -22 -1 -41 0
-41 1 0 1 16 12 36 24 40 25 61 53 68 92 4 22 0 28 -17 30 -31 5 -67 -14 -162
-87 -88 -67 -138 -85 -233 -83 -46 1 -49 10 -4 13 68 6 143 36 181 74 100 100
63 283 -62 307 -39 7 -95 -15 -121 -49 -60 -78 -15 -167 84 -167 16 0 32 5 35
10 15 24 24 7 11 -19 -18 -33 -88 -71 -132 -71 -48 0 -120 29 -158 64 -103 94
-110 296 -14 441 31 46 33 47 38 24 9 -36 33 -34 92 4 64 42 124 70 199 91 85
25 96 27 200 33 142 8 280 -24 404 -94 l40 -23 -55 -1 c-56 -1 -74 -2 -146
-12 -78 -10 -127 -29 -156 -58 -22 -21 -27 -33 -20 -45 6 -10 5 -27 -1 -45 -8
-20 -8 -35 1 -54 11 -25 16 -27 60 -22 26 2 58 7 72 11 55 15 202 18 277 6
161 -26 252 -78 316 -183 34 -54 38 -68 34 -110 -5 -57 -28 -85 -76 -93 -54
-8 -91 -25 -91 -40 0 -27 22 -61 51 -78 36 -21 76 -18 108 9 l24 20 -12 -23
c-17 -32 -57 -55 -97 -55 -89 0 -137 136 -63 180 34 20 35 24 11 54 -14 16
-28 22 -55 21 -111 -4 -159 -139 -90 -251 63 -102 187 -135 286 -78 25 15 50
34 54 42 7 12 13 10 36 -11 138 -128 360 -32 361 156 0 67 -22 106 -76 130
-48 21 -84 15 -105 -17 -14 -22 -15 -26 -2 -33 47 -28 54 -39 53 -84 -1 -62
-34 -98 -97 -110 -28 -5 -87 28 -95 52 -3 10 2 10 21 -3 47 -30 129 2 142 57
8 32 -19 53 -80 62 -82 12 -108 92 -61 185 72 140 239 215 468 207 57 -2 114
-6 128 -9 92 -23 114 -24 138 -5 14 12 16 57 3 77 -6 9 -6 22 -1 31 20 37 -52
88 -146 104 -49 9 -123 15 -184 15 l-45 1 30 18 c113 68 252 103 395 98 214
-7 344 -57 495 -190 17 -15 49 -41 72 -59 46 -36 52 -54 48 -154 -5 -128 -79
-220 -197 -245 -51 -11 -63 -10 -105 8 -30 12 -54 30 -66 51 l-18 32 29 -11
c108 -41 189 81 109 165 -106 113 -270 -13 -227 -174 23 -86 87 -138 196 -158
61 -12 67 -21 12 -21 -75 0 -136 25 -220 90 -94 74 -139 95 -160 77 -24 -19
-4 -71 40 -104 20 -15 40 -30 44 -33 5 -3 -11 -5 -35 -5 -60 1 -145 -13 -184
-32 -45 -21 -73 -69 -67 -112 5 -29 0 -39 -34 -75 -57 -59 -71 -92 -68 -162 4
-95 41 -146 115 -159 69 -12 122 35 115 100 -2 17 -12 37 -24 47 -38 31 -16
84 58 139 77 56 136 75 522 164 147 33 207 61 265 122 135 140 169 339 85 503
-29 57 -119 143 -192 184 -143 79 -291 111 -514 109 -421 -4 -765 -166 -934
-441 l-32 -53 -20 38 c-127 237 -423 406 -785 449 -78 9 -249 11 -308 3z m92
-45 c-3 -3 -12 -4 -19 -1 -8 3 -5 6 6 6 11 1 17 -2 13 -5z m-98 -23 c-37 -10
-97 -32 -134 -49 -85 -40 -90 -40 -35 0 44 33 149 67 205 67 20 0 8 -6 -36
-18z m2231 10 c0 -4 -11 -6 -25 -3 -14 2 -25 6 -25 8 0 2 11 4 25 4 14 0 25
-4 25 -9z m137 -33 c23 -11 52 -31 64 -44 21 -23 19 -22 -32 5 -30 16 -78 37
-106 46 -29 10 -53 21 -53 25 0 12 80 -8 127 -32z m-1622 -223 c35 -9 131 -56
160 -79 11 -9 -10 -3 -46 13 -96 43 -186 59 -321 58 -126 -2 -135 9 -16 19 40
4 74 7 75 8 4 4 116 -11 148 -19z m987 10 c95 -11 85 -20 -20 -18 -146 3 -319
-34 -381 -81 -12 -9 -13 -8 -7 3 5 7 46 31 92 53 79 37 192 61 249 52 11 -2
41 -6 67 -9z m873 -22 c30 -44 32 -57 7 -44 -15 8 -48 81 -36 81 2 0 15 -17
29 -37z m112 -59 c35 -77 35 -164 -1 -237 -25 -52 -86 -122 -86 -99 0 7 4 12
8 12 4 0 21 26 37 57 37 74 45 176 20 269 -9 35 -21 67 -26 70 -5 3 -9 10 -9
17 0 18 28 -26 57 -89z m-3169 11 c-16 -47 -19 -78 -16 -141 4 -70 9 -89 42
-150 l38 -69 -31 30 c-87 82 -107 213 -51 333 17 36 32 63 34 61 3 -2 -5 -31
-16 -64z m2447 -539 c-55 -18 -115 -40 -133 -50 -19 -10 -36 -16 -38 -13 -9 9
100 59 168 76 112 29 114 23 3 -13z m-1732 8 c60 -15 143 -52 135 -59 -2 -3
-31 7 -65 20 -33 14 -85 31 -114 39 -30 8 -46 15 -35 15 10 1 45 -6 79 -15z
m234 -201 c23 -29 27 -46 28 -95 0 -55 -3 -62 -33 -89 -18 -16 -37 -29 -43
-29 -6 0 3 12 20 26 61 51 54 136 -17 215 -41 46 -43 50 -14 30 17 -12 44 -38
59 -58z m1289 26 c-69 -77 -75 -163 -15 -213 17 -14 26 -26 21 -26 -24 0 -72
53 -78 86 -11 61 4 103 56 155 64 64 74 63 16 -2z"/>
</g>
</svg>
